<svg width="149" height="8" viewBox="0 0 149 8" fill="none" xmlns="http://www.w3.org/2000/svg">
<path d="M137.457 5.99512C137.177 6.0321 136.922 6.0321 136.642 6.08756L136.642 6.10605C136.515 6.0321 136.362 5.99512 136.183 5.97663C135.725 5.93966 135.241 5.90268 134.782 5.86571C134.731 5.86571 134.706 5.8842 134.731 5.92117C134.731 5.93966 134.757 5.95815 134.757 5.95815C135.011 6.0321 135.292 6.10605 135.572 6.16151C135.648 6.18 135.725 6.19849 135.801 6.19849C136.285 6.16151 136.769 6.30941 137.254 6.34639C137.356 6.34639 137.457 6.38336 137.559 6.38336C138.094 6.36487 138.604 6.45731 139.139 6.53126C139.292 6.54975 139.419 6.56824 139.572 6.56824C140.031 6.54975 140.464 6.6237 140.897 6.71614C140.897 6.71614 140.923 6.73463 140.923 6.75312C140.642 6.80858 140.362 6.7716 140.082 6.73463C139.521 6.64219 138.961 6.6237 138.375 6.60521C138.222 6.60521 138.094 6.60521 137.942 6.58673C137.483 6.49429 137.024 6.4758 136.54 6.45731C136.489 6.45731 136.464 6.4758 136.464 6.49429C136.464 6.51278 136.489 6.53126 136.489 6.53126C136.795 6.6237 137.101 6.69765 137.432 6.67916C137.61 6.67916 137.789 6.67916 137.993 6.67916C138.196 6.67916 138.4 6.71614 138.528 6.84555C138.655 6.97497 138.782 6.97497 138.935 6.93799C139.139 6.88253 139.343 6.88253 139.521 6.84555C139.674 6.82707 139.853 6.82707 140.005 6.88253C140.158 6.93799 140.311 6.93799 140.49 6.93799C140.566 6.93799 140.642 6.95648 140.693 7.01194C140.719 7.04892 140.77 7.08589 140.795 7.10438C141.05 7.19682 141.305 7.28926 141.611 7.28926C141.84 7.28926 142.044 7.32623 142.273 7.36321C142.655 7.41867 143.038 7.47413 143.42 7.49262C143.726 7.51111 144.031 7.56657 144.312 7.60355C144.439 7.62203 144.541 7.64052 144.668 7.64052C145.407 7.65901 146.121 7.8254 146.834 7.86237C146.86 7.86237 146.885 7.91784 146.885 7.93633C146.885 7.95481 146.834 7.9733 146.809 7.99179C146.783 7.99179 146.732 8.01028 146.681 7.99179C146.452 7.9733 146.223 7.9733 146.019 7.95481C145.535 7.91784 145.051 7.86237 144.566 7.8254C144.108 7.78842 143.624 7.75145 143.165 7.69599C142.885 7.6775 142.604 7.65901 142.324 7.64052C142.222 7.64052 142.12 7.64052 142.018 7.60355C141.713 7.5296 141.381 7.5296 141.05 7.5296C140.388 7.5296 139.751 7.47413 139.088 7.43716C138.986 7.43716 138.884 7.41867 138.782 7.41867C138.579 7.41867 138.375 7.40018 138.171 7.36321C137.916 7.30774 137.661 7.28926 137.381 7.27077C136.948 7.25228 136.54 7.23379 136.107 7.19682C135.699 7.15984 135.292 7.10438 134.909 7.06741C134.553 7.03043 134.17 7.01194 133.814 6.99345C133.483 6.97497 133.177 6.95648 132.846 6.9195C132.54 6.88253 132.234 6.86404 131.928 6.84555C130.96 6.7716 129.992 6.71614 128.998 6.64219C128.565 6.60521 128.157 6.56824 127.724 6.53126C127.112 6.49429 126.501 6.45731 125.889 6.40185C125.125 6.34639 124.361 6.29092 123.571 6.27244C123.112 6.27244 122.679 6.21697 122.246 6.16151C122.016 6.14302 121.813 6.12453 121.583 6.10605C121.15 6.08756 120.742 6.06907 120.309 6.0321C120.156 6.0321 120.029 6.01361 119.876 6.01361C119.519 6.0321 119.137 5.99512 118.78 5.95815C118.449 5.92117 118.143 5.92117 117.812 5.90268C117.252 5.8842 116.666 5.84722 116.105 5.82873C115.952 5.82873 115.774 5.82873 115.621 5.81024C115.086 5.75478 114.525 5.73629 113.965 5.73629C113.786 5.73629 113.608 5.71781 113.404 5.71781C112.869 5.68083 112.359 5.64386 111.824 5.64386C111.646 5.64386 111.468 5.64386 111.264 5.62537C110.78 5.56991 110.296 5.58839 109.811 5.56991C109.353 5.55142 108.92 5.53293 108.461 5.51444C108.13 5.49595 107.798 5.49595 107.493 5.47747C107.034 5.45898 106.601 5.44049 106.142 5.422C106.015 5.422 105.887 5.40352 105.785 5.40352C105.148 5.44049 104.511 5.38503 103.9 5.38503C103.543 5.38503 103.161 5.34805 102.804 5.34805C102.142 5.32957 101.454 5.31108 100.791 5.29259C100.333 5.2741 99.8996 5.2741 99.4409 5.25561C99.1861 5.23713 98.9058 5.23713 98.651 5.25561C98.5236 5.2741 98.3962 5.2741 98.2943 5.25561C98.0395 5.21864 97.7592 5.21864 97.5044 5.21864C96.9438 5.20015 96.3578 5.18166 95.7972 5.18166C95.6953 5.18166 95.5934 5.16318 95.4915 5.16318C94.9819 5.20015 94.4723 5.16318 93.9627 5.16318C93.3766 5.16318 92.7906 5.18166 92.179 5.18166C91.7968 5.18166 91.4146 5.16318 91.007 5.16318C90.8541 5.16318 90.6757 5.14469 90.5228 5.16318C90.1661 5.20015 89.8349 5.18166 89.4781 5.16318C89.0195 5.14469 88.5863 5.10771 88.1277 5.16318C88.0767 5.16318 88.0003 5.16318 87.9493 5.16318C87.083 5.10771 86.1912 5.16318 85.3249 5.14469C84.5095 5.1262 83.6941 5.1262 82.8788 5.1262C82.3182 5.1262 81.7321 5.16318 81.1716 5.1262C80.1269 5.16318 79.0822 5.1262 78.063 5.18166C77.4005 5.21864 76.7125 5.20015 76.05 5.20015C75.7952 5.20015 75.515 5.20015 75.2602 5.20015C74.5977 5.20015 73.9097 5.21864 73.2472 5.23713C72.7376 5.23713 72.228 5.23713 71.7184 5.25561C70.8011 5.29259 69.8838 5.29259 68.9665 5.29259C68.7117 5.29259 68.4314 5.29259 68.1766 5.31108C67.2848 5.32956 66.393 5.34805 65.4757 5.32956C65.3229 5.32956 65.1445 5.32956 64.9916 5.34805C64.1508 5.40351 63.2844 5.40351 62.4181 5.422C61.7556 5.44049 61.1186 5.44049 60.4561 5.45898C60.1758 5.45898 59.8956 5.47747 59.6153 5.38503C59.5388 5.36654 59.4369 5.36654 59.386 5.38503C59.0802 5.49595 58.749 5.49595 58.4177 5.49595C57.6533 5.51444 56.9144 5.51444 56.15 5.53293C55.7678 5.53293 55.3856 5.55142 55.0034 5.5699C54.876 5.5699 54.7486 5.5699 54.6466 5.58839C54.3918 5.58839 54.2135 5.53293 54.188 5.32956C54.188 5.32956 54.1115 5.31108 54.0861 5.31108C54.0606 5.31108 54.0606 5.32956 54.0351 5.34805C53.9841 5.55142 53.8058 5.60688 53.551 5.60688C52.9904 5.60688 52.4553 5.62537 51.8948 5.64385C50.7227 5.68083 49.5761 5.7178 48.404 5.7178C48.0473 5.7178 47.665 5.75478 47.3083 5.75478C46.5184 5.77327 45.7285 5.79175 44.9132 5.81024C44.7858 5.81024 44.6584 5.81024 44.5565 5.82873C43.843 5.88419 43.1296 5.88419 42.4161 5.88419C41.5753 5.90268 40.7344 5.93966 39.9191 5.95814C39.6388 5.95814 39.3585 5.97663 39.0527 5.97663C38.1864 5.99512 37.2946 6.01361 36.4283 6.05058C36.1735 6.05058 35.8932 6.08756 35.6384 6.10604C35.0014 6.14302 34.3644 6.10604 33.7528 6.12453C33.498 6.14302 33.2687 6.14302 33.0139 6.10604C32.912 6.08756 32.8101 6.08756 32.7081 6.10604C32.0966 6.16151 31.4851 6.10604 30.8736 6.12453C30.2875 6.14302 29.7015 6.12453 29.0899 6.14302C28.5039 6.14302 27.9179 6.16151 27.3063 6.17999C27.128 6.17999 26.9241 6.17999 26.7712 6.21697C26.5419 6.25394 26.3381 6.30941 26.1088 6.27243C25.8794 6.25394 25.6756 6.29092 25.4463 6.23546C25.3444 6.19848 25.1915 6.21697 25.0895 6.23546C24.478 6.32789 23.841 6.30941 23.204 6.30941C22.4396 6.30941 21.7007 6.30941 20.9363 6.30941C20.4267 6.30941 19.9171 6.30941 19.4075 6.30941C18.6685 6.29092 17.9296 6.32789 17.2161 6.27243C17.1397 6.27243 17.0633 6.27243 16.9613 6.27243C16.3498 6.34638 15.7383 6.27243 15.1268 6.25394C14.9739 6.25394 14.7955 6.23546 14.6427 6.23546C14.1076 6.25394 13.5725 6.23546 13.0629 6.23546C12.8845 6.23546 12.7061 6.23546 12.5023 6.23546C12.3239 6.23546 12.1456 6.23546 11.9417 6.23546C11.4831 6.19848 10.999 6.19848 10.5403 6.19848C10.1071 6.17999 9.674 6.17999 9.26631 6.16151C8.57834 6.14302 7.89038 6.10604 7.20241 6.08755C6.28513 6.05058 5.36784 6.03209 4.45055 5.97663C3.71162 5.93965 2.94722 5.8657 2.20828 5.81024C1.92801 5.79175 1.6477 5.7178 1.36743 5.68083C1.01071 5.62536 0.730438 5.49595 0.424667 5.36654C0.271789 5.31107 0.169861 5.20015 0.144378 5.08922C0.0934141 4.94132 0.042465 4.79342 0.0169828 4.66401C-0.00849934 4.38669 -0.0339662 4.10938 0.169876 3.85055C0.195343 3.79509 0.220825 3.73962 0.246307 3.68416C0.348221 3.44382 0.526581 3.27743 0.832352 3.14802C1.01071 3.07407 1.18907 3.01861 1.4184 3.03709C1.67319 3.03709 1.95349 3.05558 2.20828 3.05558C2.33569 3.05558 2.46309 3.05558 2.565 3.03709C2.84529 2.96314 3.12556 2.98163 3.40585 3.00012C3.55873 3.01861 3.73709 3.01861 3.88998 3.01861C4.04286 3.01861 4.22122 3.01861 4.37411 2.96314C4.60344 2.87071 4.83275 2.85222 5.08755 2.87071C5.87744 2.88919 6.66731 2.8707 7.48268 2.90768C7.96681 2.92617 8.45094 2.90768 8.93506 2.92617C9.18986 2.92617 9.47015 2.94466 9.72496 2.94466C10.0817 2.94466 10.4129 2.96314 10.7697 2.96314C11.5341 2.98163 12.3239 2.94466 13.0883 3.01861C13.1138 3.01861 13.1393 3.01861 13.1393 3.01861C13.2412 3.01861 13.3177 2.98163 13.3431 2.88919C13.3431 2.81524 13.4196 2.79675 13.496 2.77827C13.547 2.77827 13.6234 2.75978 13.6744 2.77827C14.133 2.81524 14.6172 2.81524 15.0758 2.81524C15.509 2.81524 15.9167 2.87071 16.3498 2.83373C16.4518 2.83373 16.5536 2.83373 16.6556 2.81524C16.8849 2.74129 17.1397 2.75978 17.369 2.79676C17.5474 2.81524 17.7258 2.81524 17.9041 2.79676C18.108 2.77827 18.3118 2.77827 18.5157 2.77827C18.6176 2.77827 18.7195 2.77827 18.8214 2.79676C19.1526 2.88919 19.4839 2.87071 19.8406 2.87071C20.3247 2.85222 20.8089 2.87071 21.3185 2.88919C21.3439 2.88919 21.3694 2.88919 21.3694 2.90768C21.3949 2.94466 21.3694 2.96314 21.3185 2.96314C21.2675 2.98163 21.1911 2.98163 21.1401 3.00012C21.1401 3.00012 21.1146 3.01861 21.1146 3.03709C21.1146 3.05558 21.1146 3.07407 21.1401 3.07407C21.1656 3.09256 21.2166 3.11105 21.242 3.11105C21.4204 3.11105 21.5988 3.11105 21.7771 3.11105C21.8536 3.11105 21.93 3.07407 21.9555 3.01861C22.0319 2.85222 22.2103 2.79676 22.4141 2.77827C22.7454 2.75978 23.0511 2.7228 23.3824 2.75978C23.5098 2.77827 23.6372 2.77827 23.7391 2.75978C23.892 2.74129 24.0703 2.74129 24.2232 2.77827C24.2997 2.79676 24.3761 2.79676 24.478 2.77827C24.6564 2.75978 24.8347 2.74129 25.0131 2.77827C25.0895 2.79676 25.166 2.77827 25.2424 2.75978C25.3698 2.75978 25.4972 2.7228 25.5992 2.74129C26.1597 2.79676 26.6948 2.7228 27.2554 2.74129C28.3255 2.75978 29.3702 2.68583 30.4404 2.7228C30.4914 2.7228 30.5678 2.7228 30.6188 2.7228C31.8163 2.64885 33.0139 2.66734 34.2115 2.63037C34.5172 2.63037 34.823 2.61188 35.1288 2.63037C35.409 2.64885 35.6893 2.63037 35.9696 2.59339C36.1989 2.5749 36.4028 2.55642 36.6321 2.55642C37.371 2.53793 38.11 2.51944 38.8234 2.48247C38.9763 2.48247 39.1037 2.48247 39.2566 2.48247C39.3585 2.48247 39.4604 2.50095 39.5623 2.48247C40.1229 2.427 40.7089 2.44549 41.2695 2.44549C41.5243 2.44549 41.8046 2.44549 42.0594 2.427C42.3652 2.40852 42.6709 2.39003 42.9767 2.40852C43.0531 2.40852 43.1296 2.40852 43.2315 2.40852C43.5372 2.39003 43.843 2.37154 44.1488 2.37154C44.4545 2.35305 44.7603 2.35305 45.0661 2.29759C45.2189 2.26061 45.3973 2.24213 45.5502 2.2791C45.8814 2.33457 46.1872 2.29759 46.5184 2.29759C46.8497 2.29759 47.1809 2.29759 47.4867 2.29759C48.0473 2.2791 48.5823 2.26061 49.1429 2.26061C49.3467 2.26061 49.5506 2.24213 49.7544 2.29759C49.7799 2.29759 49.7799 2.31608 49.7799 2.33457C49.7799 2.35305 49.7799 2.37154 49.7799 2.37154C49.7544 2.39003 49.729 2.40852 49.678 2.427C49.4742 2.46398 49.2703 2.46398 49.0665 2.44549C48.6078 2.427 48.1237 2.48247 47.665 2.40852C47.3848 2.427 47.1045 2.46398 46.8242 2.48247C46.6713 2.50095 46.5184 2.51944 46.391 2.50095C46.1362 2.44549 45.9069 2.48247 45.6776 2.51944C45.5502 2.53793 45.4228 2.53793 45.3209 2.53793C44.8622 2.53793 44.4291 2.55642 43.9704 2.55642C43.8685 2.55642 43.7666 2.53793 43.6646 2.53793C43.4099 2.51944 43.1296 2.51944 42.8748 2.55642C42.6964 2.59339 42.518 2.59339 42.3397 2.59339C41.7791 2.55642 41.1931 2.61188 40.6325 2.61188C40.5051 2.61188 40.3777 2.63037 40.2758 2.64885C39.97 2.72281 39.6388 2.72281 39.3075 2.72281C39.0782 2.72281 38.8489 2.72281 38.645 2.72281C38.5686 2.72281 38.4922 2.74129 38.3902 2.74129C38.4412 2.75978 38.4667 2.79676 38.4922 2.79676C38.8998 2.79676 39.3075 2.79676 39.7152 2.79676C39.9955 2.79676 40.2758 2.79676 40.6325 2.81524C40.3013 2.96314 40.021 3.0371 39.7152 3.00012C39.4604 2.96315 39.1801 2.96314 38.9253 3.01861C38.7215 3.05558 38.5176 3.0371 38.3138 3.01861C38.1354 3.00012 37.9571 3.00012 37.7787 3.0371C37.5749 3.09256 37.371 3.09256 37.1672 3.0371C36.8869 2.98163 36.6066 2.98163 36.3263 3.01861C36.0461 3.0371 35.7658 3.05558 35.4855 3.05558C35.1288 3.0371 34.7466 3.05558 34.3898 3.09256C33.9567 3.12953 33.549 3.16651 33.1158 3.11105C33.0139 3.09256 32.912 3.11105 32.8101 3.11105C32.3514 3.14802 31.8673 3.185 31.4086 3.185C31.2558 3.185 31.1284 3.20348 31.0264 3.29592C30.6442 3.27743 30.6442 3.27743 30.4914 3.3329C30.6697 3.36987 30.8481 3.35138 31.001 3.29592C31.1029 3.3329 31.2303 3.36987 31.3577 3.36987C32.0711 3.3329 32.7846 3.36987 33.498 3.36987C34.186 3.36987 34.874 3.35138 35.5619 3.31441C35.8167 3.29592 36.0461 3.29592 36.3009 3.29592C36.5557 3.29592 36.785 3.27743 37.0398 3.27743C37.3456 3.25895 37.6513 3.24046 37.9571 3.25895C38.1354 3.25895 38.3138 3.24046 38.5176 3.24046C38.7724 3.24046 39.0018 3.20348 39.2566 3.24046C39.3585 3.25895 39.4604 3.24046 39.5623 3.24046C39.9445 3.20348 40.3267 3.185 40.7089 3.20348C40.9128 3.20348 41.1166 3.20348 41.3205 3.20348C41.4988 3.20348 41.6772 3.20348 41.881 3.20348C42.0594 3.20348 42.1868 3.27743 42.2632 3.38836C42.2632 3.40685 42.2887 3.40685 42.3142 3.42534C42.3397 3.42534 42.3652 3.44382 42.3652 3.42534C42.5435 3.38836 42.6964 3.3329 42.8748 3.29592C42.9257 3.27743 42.9002 3.24046 42.8748 3.22197C42.8238 3.20348 42.7983 3.16651 42.8493 3.16651C43.0786 3.14802 43.3079 3.14802 43.5118 3.14802C43.7921 3.14802 44.0723 3.14802 44.3526 3.11105C44.5565 3.09256 44.7603 3.09256 44.9641 3.09256C45.0915 3.09256 45.2189 3.07407 45.2954 3.01861C45.3209 3.00012 45.3464 2.96315 45.3464 2.94466C45.3464 2.92617 45.3209 2.88919 45.2954 2.87071C45.2699 2.85222 45.2189 2.85222 45.168 2.85222C45.0151 2.85222 44.8877 2.85222 44.7348 2.87071C44.4291 2.88919 44.1233 2.94466 43.8175 2.94466C43.5372 2.96314 43.257 2.94466 42.9767 2.92617C42.7219 2.90768 42.4416 2.90768 42.1868 2.94466C41.932 2.98163 41.6517 2.96314 41.3969 2.94466C41.3714 2.94466 41.3459 2.92617 41.3459 2.90768C41.3714 2.88919 41.3714 2.85222 41.3969 2.85222C41.4988 2.83373 41.6007 2.81524 41.7027 2.81524C42.2123 2.79676 42.7219 2.79676 43.2315 2.79676C43.894 2.79676 44.531 2.77827 45.1935 2.77827C45.5757 2.77827 45.9579 2.77827 46.3401 2.70432C46.5439 2.66734 46.6968 2.75978 46.8752 2.77827C46.9261 2.77827 46.9516 2.81524 46.9261 2.85222C46.9261 2.87071 46.9006 2.88919 46.8752 2.88919C46.7987 2.90768 46.7223 2.92617 46.6458 2.92617C46.442 2.90768 46.2382 2.87071 46.0343 2.90768C45.9834 2.90768 45.9069 2.92617 45.8814 2.98163C45.8559 3.01861 45.9324 3.05558 46.0088 3.07407C46.0598 3.07407 46.0853 3.07407 46.1362 3.07407C46.1872 3.07407 46.2127 3.07407 46.2636 3.07407C46.8242 3.07407 47.4102 3.09256 47.9708 3.09256C48.0218 3.09256 48.0472 3.09256 48.0982 3.11105C48.1237 3.12953 48.1747 3.14802 48.1747 3.16651C48.1747 3.185 48.1492 3.22197 48.1237 3.24046C48.0982 3.27743 48.0472 3.29592 47.9708 3.35139C48.0982 3.35139 48.1747 3.35139 48.2511 3.35139C48.353 3.36987 48.4549 3.3329 48.5059 3.27744C48.6588 3.09256 48.9136 3.0371 49.1684 3.00012C49.4996 2.96315 49.8564 2.90768 50.1876 2.98163C50.3405 3.01861 50.5188 3.00012 50.6717 3.00012C51.003 3.00012 51.3342 2.98163 51.64 2.96315C51.8183 2.96315 51.9967 2.98163 52.175 3.01861C52.3789 3.07407 52.5573 3.07407 52.7611 3.00012C52.8375 2.96315 52.9649 2.94466 53.0414 2.96315C53.2452 2.98163 53.4491 2.94466 53.6529 2.90768C53.7803 2.88919 53.9332 2.88919 54.0606 2.94466C53.9587 3.05558 53.8058 3.09256 53.6529 3.11105C53.551 3.12953 53.4491 3.12953 53.3471 3.14802C53.3217 3.14802 53.3217 3.185 53.2962 3.20348C53.2962 3.20348 53.3217 3.22197 53.3471 3.22197C53.6019 3.25895 53.8313 3.25895 54.0606 3.20348C54.1625 3.185 54.2135 3.09256 54.1625 3.01861C54.137 2.98163 54.0861 2.94466 54.0606 2.90768C54.188 2.92617 54.3409 2.94466 54.4683 2.96315C54.5447 2.98163 54.6212 2.94466 54.6721 2.90768C54.6976 2.92617 54.7231 2.94466 54.7486 2.96315C54.9014 3.05558 55.0798 3.07407 55.2582 3.00012C55.3856 2.92617 55.5384 2.88919 55.7168 2.88919C56.1755 2.85222 56.6086 2.87071 57.0673 2.87071C57.2711 2.87071 57.373 2.90768 57.3985 3.05558C57.3985 3.09256 57.4495 3.09256 57.5004 3.07407C57.5259 3.05558 57.5769 3.0371 57.5769 3.00012C57.6788 2.83373 57.8317 2.79676 58.061 2.79676C58.2393 2.79676 58.3668 2.85222 58.4177 2.98163C58.4432 3.0371 58.5196 3.0371 58.5706 3.00012C58.7235 2.83373 58.9273 2.77827 59.1821 2.77827C59.5134 2.77827 59.8446 2.75978 60.1504 2.75978C60.2013 2.75978 60.2778 2.75978 60.3287 2.75978C60.4561 2.77827 60.5581 2.81524 60.609 2.90768C60.6345 2.94466 60.66 2.98163 60.7364 2.98163C60.8129 2.98163 60.8383 2.94466 60.8638 2.90768C60.8893 2.87071 60.8893 2.81524 60.9148 2.77827C60.9403 2.74129 60.9912 2.68583 61.0422 2.68583C61.2715 2.66734 61.5263 2.63037 61.7556 2.68583C62.0869 2.75978 62.3926 2.75978 62.7239 2.68583C62.9022 2.64886 63.0806 2.63037 63.259 2.64886C63.5902 2.66734 63.9214 2.66734 64.2272 2.66734C64.431 2.66734 64.6349 2.64886 64.8387 2.63037C64.9152 2.63037 64.9661 2.57491 64.9152 2.50095C64.9152 2.46398 64.8897 2.44549 64.8642 2.427C64.8642 2.37154 64.8642 2.33457 64.9407 2.31608C65.0171 2.29759 65.0935 2.26062 65.17 2.26062C65.3483 2.24213 65.5267 2.26062 65.7305 2.26062C65.8325 2.26062 65.9344 2.2791 66.0363 2.26062C66.3166 2.20515 66.5714 2.24213 66.7752 2.35305C66.6988 2.37154 66.5969 2.35305 66.4695 2.35305C66.3421 2.35305 66.2147 2.35305 66.1128 2.37154C65.9854 2.37154 65.8579 2.39003 65.756 2.39003C65.6286 2.40852 65.5522 2.46398 65.5522 2.51944C65.5522 2.57491 65.6286 2.64886 65.756 2.64886C66.0618 2.64886 66.3675 2.64886 66.6733 2.64886C66.6988 2.64886 66.7497 2.66734 66.7752 2.68583L66.7752 2.72281C66.6478 2.74129 66.495 2.75978 66.3676 2.77827C66.3166 2.77827 66.2656 2.81524 66.2147 2.83373C66.2147 2.83373 66.1892 2.87071 66.2147 2.87071C66.3676 2.92617 66.5204 2.96315 66.6733 2.92617C66.9026 2.8892 67.1065 2.83373 67.3358 2.83373C67.3613 2.83373 67.3868 2.79676 67.3868 2.77827C67.3868 2.72281 67.3868 2.68583 67.4632 2.68583C67.5396 2.68583 67.6161 2.68583 67.6925 2.68583C67.718 2.68583 67.769 2.70432 67.7944 2.74129C67.9728 2.92617 68.2021 2.98163 68.4824 2.92617C68.6098 2.90768 68.7117 2.90768 68.8391 2.8892C68.8646 2.8892 68.8901 2.83373 68.8646 2.81524C68.8646 2.77827 68.8137 2.72281 68.8391 2.68583C68.8646 2.64886 68.9411 2.63037 68.992 2.63037C69.2213 2.59339 69.4761 2.59339 69.7055 2.63037C69.7309 2.63037 69.7564 2.68583 69.7309 2.70432C69.7055 2.72281 69.6545 2.74129 69.629 2.75978C69.6035 2.77827 69.5781 2.81524 69.6035 2.83373C69.6035 2.85222 69.6545 2.8892 69.68 2.8892C69.8329 2.8892 70.0112 2.87071 70.1131 2.77827C70.2151 2.68583 70.317 2.63037 70.4699 2.63037C70.7756 2.59339 71.0814 2.57491 71.3872 2.53793C71.591 2.51944 71.7948 2.53793 71.9732 2.59339C72.1006 2.63037 72.1516 2.66734 72.1261 2.68583C72.0751 2.74129 71.9987 2.74129 71.9222 2.75978C71.7948 2.77827 71.6674 2.77827 71.5655 2.77827C71.54 2.77827 71.5146 2.79676 71.4636 2.81524C71.7948 2.83373 72.1261 2.87071 72.4318 2.8892C72.5847 2.8892 72.7121 2.8892 72.865 2.87071C73.1453 2.85222 73.4256 2.83373 73.7059 2.85222C73.8333 2.87071 73.9352 2.83373 74.0626 2.83373C74.1645 2.81524 74.19 2.77827 74.139 2.68583C74.1135 2.64886 74.1135 2.63037 74.1645 2.61188C74.19 2.61188 74.2409 2.59339 74.2919 2.59339C74.4958 2.61188 74.6996 2.61188 74.9034 2.59339C75.0563 2.57491 75.2347 2.59339 75.3876 2.59339C75.5659 2.59339 75.6933 2.63037 75.7952 2.74129C75.9226 2.87071 76.101 2.81525 76.2284 2.75978C76.3048 2.72281 76.3558 2.64886 76.4323 2.59339C76.5851 2.50096 76.7635 2.44549 76.9419 2.48247C77.2476 2.55642 77.5279 2.57491 77.8337 2.55642C77.9101 2.55642 77.9865 2.57491 78.063 2.57491C78.1394 2.57491 78.1394 2.61188 78.1139 2.66734C78.063 2.77827 78.0885 2.83373 78.2413 2.83373C78.649 2.83373 79.0567 2.81525 79.4644 2.81525C79.5663 2.81525 79.6937 2.79676 79.7192 2.70432C79.7702 2.59339 79.8466 2.57491 79.9995 2.57491C80.0504 2.57491 80.1269 2.57491 80.1778 2.59339C80.2288 2.59339 80.2288 2.63037 80.2288 2.66734C80.2033 2.74129 80.3053 2.77827 80.3562 2.79676C80.5346 2.85222 80.7129 2.79676 80.8658 2.72281C80.8658 2.72281 80.8403 2.66734 80.8148 2.64886C80.7894 2.61188 80.7894 2.59339 80.8403 2.57491C81.1206 2.51944 81.4009 2.55642 81.6557 2.66734L81.6557 2.64886C81.7067 2.72281 81.7831 2.77827 81.9105 2.74129L81.885 2.75978C82.0634 2.75978 82.2418 2.72281 82.4201 2.74129C82.5985 2.75978 82.7768 2.79676 82.9552 2.81525C83.0061 2.81525 83.1081 2.77827 83.1081 2.75978C83.1081 2.74129 83.0826 2.70432 83.0571 2.70432C83.0316 2.68583 82.9807 2.68583 82.9552 2.66734C82.9552 2.66734 82.9297 2.64886 82.9297 2.63037C82.9297 2.61188 82.9552 2.59339 82.9552 2.59339C83.2355 2.57491 83.5158 2.55642 83.796 2.53793C83.9489 2.51944 84.0763 2.57491 84.1273 2.68583C84.1528 2.75978 84.2547 2.79676 84.3566 2.81525C84.484 2.83373 84.6114 2.83373 84.7133 2.83373C85.2484 2.83373 85.809 2.83373 86.3441 2.83373C86.5224 2.83373 86.7008 2.81525 86.8792 2.75978C86.9046 2.75978 86.9301 2.7413 86.9301 2.7413C86.9556 2.70432 86.9301 2.68583 86.8792 2.68583C86.6498 2.66734 86.395 2.66734 86.1657 2.64886C86.1657 2.64886 86.1402 2.63037 86.1402 2.61188C86.1402 2.59339 86.1657 2.57491 86.1657 2.57491C86.2421 2.55642 86.3186 2.53793 86.395 2.55642C86.6244 2.59339 86.8282 2.61188 87.0575 2.57491C87.1849 2.55642 87.3378 2.59339 87.4652 2.59339C87.5926 2.59339 87.6945 2.61188 87.8219 2.63037C87.8219 2.68583 87.7964 2.72281 87.7964 2.75978C87.8219 2.79676 87.8729 2.83373 87.9238 2.83373C88.0512 2.85222 88.2041 2.87071 88.3315 2.8892C88.357 2.8892 88.3825 2.92617 88.408 2.92617C88.3825 2.94466 88.3315 2.94466 88.306 2.96315C88.2551 2.98163 88.2041 2.98163 88.1277 3.00012C88.1277 3.00012 88.1277 3.01861 88.1277 3.0371C88.1277 3.05559 88.1532 3.05559 88.1786 3.05559C88.4844 3.07407 88.7902 3.00012 88.994 2.83373C89.0959 2.83373 89.1979 2.83373 89.2743 2.83373C89.2998 2.83373 89.2998 2.79676 89.3253 2.77827C89.2998 2.75978 89.2488 2.7413 89.2233 2.7413C89.1469 2.75978 89.045 2.81525 88.9685 2.83373C88.9176 2.79676 88.8666 2.7413 88.8157 2.70432C88.8157 2.68583 88.7902 2.66734 88.7902 2.66734C88.8157 2.64886 88.8411 2.61188 88.8666 2.61188C89.0195 2.61188 89.1469 2.59339 89.2998 2.59339C89.4527 2.59339 89.5801 2.63037 89.682 2.72281C89.7329 2.75978 89.7839 2.7413 89.8349 2.70432C89.8858 2.66734 89.9113 2.61188 89.9623 2.61188C90.1916 2.57491 90.3954 2.53793 90.6247 2.55642C91.1344 2.63037 91.644 2.59339 92.1536 2.57491C92.281 2.57491 92.3829 2.53793 92.4848 2.48247C92.5867 2.42701 92.7141 2.42701 92.8161 2.48247C92.9435 2.57491 93.0963 2.59339 93.2747 2.59339C93.4531 2.59339 93.6314 2.59339 93.8353 2.59339C93.8607 2.59339 93.9117 2.61188 93.9372 2.63037C93.9627 2.64886 93.8862 2.72281 93.8353 2.72281C93.7079 2.7413 93.6059 2.7413 93.4785 2.75978C93.4276 2.75978 93.4021 2.79676 93.4276 2.83373C93.4276 2.85222 93.4531 2.85222 93.4785 2.85222C93.8607 2.81525 94.2429 2.8892 94.6251 2.81525C94.6506 2.81525 94.6761 2.79676 94.6761 2.79676C94.6506 2.77827 94.6506 2.75978 94.6251 2.72281C94.5997 2.70432 94.5742 2.68583 94.5487 2.64886C94.5487 2.64886 94.5487 2.61188 94.5742 2.61188C94.5997 2.59339 94.6506 2.59339 94.6761 2.59339C94.9309 2.59339 95.1602 2.57491 95.415 2.59339C95.7463 2.59339 96.0775 2.61188 96.3833 2.57491C96.5107 2.55642 96.6381 2.57491 96.74 2.57491C96.9948 2.59339 97.2241 2.61188 97.4789 2.61188C97.5809 2.61188 97.6318 2.64886 97.6063 2.68583C97.5809 2.70432 97.5554 2.72281 97.5044 2.72281C97.1477 2.7413 96.8164 2.75978 96.4597 2.72281C96.1285 2.68583 95.7972 2.70432 95.4915 2.70432C95.466 2.70432 95.415 2.72281 95.415 2.75978C95.415 2.77827 95.4405 2.81525 95.466 2.81525C95.5934 2.83373 95.6953 2.85222 95.8227 2.87071C95.9501 2.8892 96.103 2.92617 96.2559 2.98163C96.2814 2.98163 96.3323 2.96315 96.3833 2.94466C96.5362 2.87071 96.7145 2.83373 96.8929 2.87071C97.2241 2.92617 97.5299 2.90768 97.8611 2.90768C98.014 2.90768 98.1414 2.90768 98.2943 2.8892C98.4981 2.85222 98.702 2.87071 98.9058 2.90768C99.0587 2.94466 99.2116 2.96315 99.39 2.94466C99.4919 2.94466 99.5938 2.96315 99.6957 2.96315C99.7722 2.96315 99.8486 2.98164 99.925 2.98164C100.638 2.90768 101.352 2.90768 102.065 2.94466C102.091 2.94466 102.116 2.94466 102.116 2.94466C102.142 2.92617 102.193 2.92617 102.218 2.90768C102.218 2.8892 102.193 2.85222 102.167 2.83373C102.065 2.75978 102.065 2.72281 102.167 2.68583C102.32 2.64886 102.473 2.61188 102.626 2.59339C102.804 2.55642 102.983 2.55642 103.136 2.66735C103.187 2.70432 103.237 2.72281 103.288 2.72281C103.492 2.70432 103.696 2.77827 103.874 2.79676C104.027 2.81525 104.206 2.83373 104.359 2.81525C104.588 2.77827 104.792 2.79676 105.021 2.81525C105.327 2.85222 105.633 2.83373 105.938 2.75978C106.04 2.72281 106.168 2.72281 106.295 2.70432C106.372 2.70432 106.473 2.70432 106.524 2.70432C106.728 2.7413 106.907 2.79676 107.11 2.72281C107.136 2.72281 107.161 2.72281 107.161 2.72281C107.62 2.85222 108.13 2.83373 108.588 2.94466C108.614 2.94466 108.614 3.00012 108.614 3.01861C108.614 3.01861 108.588 3.0371 108.563 3.0371C108.512 3.0371 108.486 3.0371 108.435 3.0371C108.232 2.98164 108.002 2.98164 107.773 3.00012C107.747 3.00012 107.697 3.01861 107.671 3.0371C107.646 3.0371 107.646 3.05559 107.646 3.07407C107.646 3.09256 107.646 3.11105 107.671 3.11105C107.697 3.12954 107.747 3.14802 107.773 3.14802C108.053 3.16651 108.334 3.16651 108.639 3.16651C108.996 3.16651 109.327 3.16651 109.684 3.22197C109.939 3.25895 110.219 3.27744 110.474 3.24046C110.499 3.24046 110.55 3.20349 110.55 3.185C110.55 3.16651 110.499 3.12954 110.474 3.12954C110.372 3.11105 110.27 3.11105 110.168 3.09256C110.041 3.07407 109.964 3.00012 109.888 2.94466C110.219 2.98164 110.576 3.00012 110.907 3.00012C111.06 3.00012 111.238 3.01861 111.391 3.01861C111.671 3.0371 111.952 3.05559 112.232 3.05559C112.436 3.05559 112.64 3.09256 112.844 3.11105C112.894 3.11105 112.92 3.14802 112.894 3.16651C112.894 3.185 112.869 3.185 112.844 3.185C112.665 3.185 112.487 3.185 112.308 3.185C112.054 3.185 111.824 3.16651 111.57 3.16651C111.544 3.16651 111.519 3.20349 111.519 3.22197L111.544 3.25895C111.722 3.31441 111.901 3.3329 112.079 3.35139C112.436 3.36988 112.818 3.36988 113.175 3.38836C113.277 3.38836 113.379 3.35139 113.43 3.29593C113.481 3.24046 113.506 3.20349 113.557 3.14802C113.582 3.12954 113.633 3.11105 113.659 3.11105C113.71 3.11105 113.786 3.11105 113.837 3.14802C113.888 3.185 113.863 3.22197 113.837 3.25895C113.786 3.3329 113.812 3.36988 113.888 3.38836C113.939 3.40685 114.016 3.40685 114.067 3.40685C114.143 3.40685 114.245 3.38836 114.245 3.3329C114.27 3.22198 114.372 3.185 114.5 3.185C114.729 3.185 114.958 3.14802 115.162 3.24046C115.188 3.24046 115.188 3.25895 115.188 3.27744C115.188 3.29593 115.188 3.31441 115.162 3.31441C115.06 3.3329 114.984 3.35139 114.882 3.36988C114.856 3.36988 114.831 3.38836 114.831 3.38836C114.856 3.40685 114.856 3.44383 114.882 3.44383C115.239 3.4808 115.595 3.51778 115.978 3.55475C116.029 3.55475 116.054 3.55475 116.105 3.55475C116.818 3.51778 117.532 3.59173 118.22 3.61022C118.271 3.61022 118.296 3.61022 118.347 3.61022C118.831 3.59173 119.265 3.66568 119.723 3.75812C119.851 3.7766 119.953 3.7766 120.08 3.7766C120.207 3.75812 120.335 3.73963 120.437 3.75812C120.921 3.83207 121.405 3.81358 121.889 3.85055C122.322 3.88753 122.73 3.86904 123.163 3.96148C123.265 3.97997 123.392 3.97997 123.52 3.97997C123.876 3.97997 124.208 3.97997 124.539 4.03543C124.513 4.05392 124.463 4.07241 124.437 4.09089C124.412 4.09089 124.412 4.10938 124.412 4.12787C124.412 4.14636 124.437 4.16485 124.437 4.16485C124.488 4.18333 124.513 4.16484 124.513 4.12787C124.513 4.09089 124.513 4.07241 124.513 4.03543C124.641 4.03543 124.768 4.01694 124.87 4.01694C125.15 4.03543 125.431 4.05392 125.711 4.09089C125.966 4.12787 126.246 4.14636 126.501 4.14636C126.756 4.14636 126.985 4.18333 127.163 4.33123C127.291 4.42367 127.469 4.42367 127.597 4.33123C127.724 4.2388 127.826 4.22031 127.979 4.2388C128.081 4.25728 128.183 4.25728 128.285 4.29426C128.616 4.36821 128.947 4.42367 129.304 4.42367C129.38 4.42367 129.457 4.44216 129.533 4.46065C129.584 4.47914 129.635 4.5346 129.584 4.57157C129.559 4.59006 129.533 4.62704 129.508 4.62704C129.253 4.62704 128.973 4.60855 128.718 4.60855C128.692 4.60855 128.641 4.62704 128.616 4.62704L128.59 4.66401C128.641 4.73796 128.718 4.81191 128.845 4.84889C129.049 4.90435 129.278 4.94133 129.508 4.94133C129.508 4.9783 129.533 5.03376 129.533 5.07074C129.559 5.18167 129.635 5.25562 129.788 5.29259C129.915 5.31108 130.068 5.34805 130.17 5.40352C130.247 5.44049 130.374 5.45898 130.45 5.44049C130.807 5.36654 131.164 5.40352 131.521 5.49596C131.572 5.51444 131.648 5.53293 131.699 5.51444C132.132 5.49596 132.54 5.62537 132.947 5.68083C133.126 5.71781 133.304 5.7363 133.483 5.71781C133.865 5.68083 134.247 5.69932 134.629 5.75478C134.757 5.77327 134.909 5.77327 135.062 5.77327C135.164 5.79176 135.266 5.79176 135.343 5.82873C135.521 5.90268 135.674 5.92117 135.878 5.92117C136.285 5.95815 136.693 5.99512 137.101 6.0321C137.228 6.05058 137.33 6.06907 137.432 6.12454C137.457 6.14302 137.457 6.18 137.457 6.19849C137.457 6.19849 137.432 6.21697 137.406 6.21697C137.789 6.10605 137.61 6.06907 137.457 5.99512ZM102.473 3.38836L102.473 3.36988C102.473 3.36988 102.473 3.40685 102.473 3.38836C102.499 3.38836 102.499 3.36988 102.524 3.36988L102.524 3.38836C102.499 3.38836 102.499 3.38836 102.473 3.38836ZM56.2519 2.83373C56.2519 2.85222 56.2519 2.85222 56.2519 2.87071C56.2519 2.88919 56.2519 2.88919 56.2519 2.90768C56.2519 2.87071 56.2519 2.85222 56.2519 2.83373ZM67.6161 3.185C67.6161 3.20349 67.6416 3.20349 67.6416 3.22197C67.6161 3.20349 67.6161 3.20349 67.6161 3.185ZM134.476 6.27244C134.502 6.29092 134.527 6.30941 134.553 6.3279C134.553 6.3279 134.578 6.34639 134.604 6.34639C134.629 6.34639 134.629 6.3279 134.655 6.3279C134.629 6.30941 134.629 6.29092 134.604 6.27244C134.553 6.27244 134.502 6.29092 134.476 6.27244ZM47.028 3.72114C47.079 3.72114 47.13 3.72114 47.1809 3.72114C47.2064 3.72114 47.2319 3.72114 47.2319 3.70265C47.2319 3.70265 47.2574 3.68416 47.2574 3.66568C47.2319 3.66568 47.1809 3.6287 47.1554 3.64719C47.1045 3.66568 47.0535 3.68416 47.028 3.72114ZM64.6349 2.64886C64.7113 2.72281 64.8387 2.74129 64.9661 2.74129C65.0171 2.74129 65.0935 2.74129 65.0935 2.68583C65.119 2.64886 65.0426 2.61188 64.9661 2.61188C64.8642 2.63037 64.7368 2.64886 64.6349 2.64886ZM126.603 4.3867C126.705 4.46065 126.807 4.51611 126.96 4.51611C127.087 4.51611 127.189 4.51611 127.316 4.51611C127.367 4.51611 127.393 4.49762 127.342 4.44216C127.112 4.42367 126.858 4.40518 126.603 4.3867C126.552 4.3867 126.526 4.3867 126.475 4.3867C126.45 4.3867 126.424 4.3867 126.424 4.3867L126.399 4.40518C126.424 4.40518 126.475 4.42367 126.501 4.40518C126.526 4.40518 126.577 4.3867 126.603 4.3867ZM126.119 4.62704C126.144 4.66401 126.17 4.70099 126.221 4.73796C126.272 4.77494 126.348 4.8304 126.424 4.8304C126.73 4.86738 127.011 4.90435 127.316 4.86738C127.342 4.86738 127.367 4.8304 127.367 4.79343C127.367 4.77494 127.316 4.73796 127.291 4.73796C127.24 4.73796 127.163 4.73796 127.112 4.73796C126.781 4.77494 126.475 4.73796 126.119 4.62704C125.94 4.62704 125.762 4.64552 125.584 4.64552C125.533 4.64552 125.507 4.64552 125.456 4.64552C125.431 4.66401 125.405 4.6825 125.405 4.70099C125.431 4.71947 125.456 4.73796 125.507 4.73796C125.711 4.77494 125.915 4.70099 126.119 4.62704ZM96.9948 3.49929C97.2241 3.6287 97.4789 3.61021 97.7592 3.61021C97.7847 3.57324 97.7592 3.55475 97.7083 3.53626C97.6318 3.49929 97.5809 3.46231 97.6063 3.38836C97.6318 3.3329 97.7083 3.29593 97.7847 3.27744C97.8357 3.25895 97.9121 3.25895 97.9631 3.25895C98.0395 3.25895 98.1159 3.25895 98.2179 3.25895C98.3198 3.25895 98.3707 3.20349 98.3198 3.185C98.2943 3.16651 98.2433 3.14802 98.2179 3.14802C97.9376 3.185 97.6573 3.185 97.377 3.185C97.2496 3.185 97.2241 3.22197 97.2751 3.31441C97.3261 3.40685 97.3006 3.46231 97.1732 3.4808C97.1222 3.49929 97.0458 3.49929 96.9948 3.49929C96.9693 3.49929 96.9693 3.49929 96.9438 3.49929C96.9693 3.49929 96.9948 3.49929 96.9948 3.49929ZM124.539 4.51611C124.361 4.55309 124.208 4.59006 124.029 4.64552L124.029 4.6825C124.233 4.75645 124.437 4.77494 124.666 4.75645C124.692 4.75645 124.692 4.73796 124.717 4.71947C124.717 4.70099 124.743 4.6825 124.717 4.6825C124.641 4.60855 124.59 4.55309 124.539 4.51611C124.768 4.42367 125.023 4.40518 125.303 4.42367C125.431 4.42367 125.533 4.44216 125.66 4.44216C125.686 4.44216 125.711 4.40518 125.737 4.3867C125.737 4.3867 125.711 4.36821 125.711 4.34972C125.558 4.29426 125.431 4.2388 125.278 4.18333C124.998 4.27577 124.692 4.25728 124.386 4.25728C124.259 4.25728 124.157 4.2388 124.029 4.2388C124.004 4.2388 123.953 4.25728 123.927 4.27577C123.927 4.27577 123.902 4.29426 123.902 4.31275C123.902 4.33123 123.927 4.34972 123.927 4.34972C124.029 4.36821 124.131 4.36821 124.233 4.36821C124.335 4.34972 124.463 4.40518 124.539 4.51611ZM128.31 4.55309C128.31 4.60855 128.285 4.66401 128.285 4.71947C128.259 4.77494 128.234 4.8304 128.132 4.84889C128.081 4.86738 128.004 4.88586 128.055 4.94133C128.539 5.03376 129.049 5.07074 129.559 5.03376C129.61 5.03376 129.635 4.99679 129.635 4.9783C129.635 4.95981 129.584 4.92284 129.559 4.92284C129.508 4.90435 129.431 4.90435 129.38 4.90435C129.202 4.94133 129.023 4.90435 128.845 4.84889C128.743 4.81191 128.692 4.75645 128.667 4.6825C128.641 4.57157 128.565 4.5346 128.412 4.5346C128.386 4.55309 128.336 4.55309 128.31 4.55309ZM27.1534 3.00012C26.6948 3.14802 26.6184 3.16651 26.2107 3.185C25.803 3.185 25.3953 3.20348 24.9876 3.20348C24.6054 3.20348 24.2232 3.20348 23.841 3.20348C23.8155 3.20348 23.7901 3.22197 23.7901 3.22197C23.7646 3.24046 23.7901 3.27743 23.841 3.27743C24.1213 3.27743 24.4016 3.25895 24.6819 3.27743C25.3698 3.27743 26.0578 3.29592 26.7458 3.27743C26.9496 3.27743 27.1534 3.25895 27.3573 3.27743C27.9179 3.31441 28.5039 3.27743 29.0645 3.25895C29.2683 3.25895 29.4722 3.22197 29.6505 3.185C29.6505 3.185 29.676 3.16651 29.676 3.14802C29.676 3.12953 29.6505 3.12953 29.6505 3.11105C29.3702 3.09256 29.0899 3.07407 28.8097 3.05558C28.5294 3.05558 28.2491 3.09256 27.9688 3.05558C27.6885 3.11105 27.4082 3.07407 27.1534 3.00012ZM21.2165 3.185C20.7579 3.185 20.2738 3.185 19.8151 3.185C19.7642 3.185 19.6877 3.20348 19.6368 3.20348C19.6368 3.20348 19.6113 3.22197 19.6113 3.24046C19.6113 3.25895 19.6113 3.27743 19.6368 3.27743C19.7132 3.29592 19.7897 3.31441 19.8661 3.31441C20.4267 3.31441 20.9617 3.3329 21.5223 3.3329C21.879 3.3329 22.2612 3.31441 22.618 3.31441C22.6689 3.31441 22.7199 3.29592 22.7708 3.27743C22.7708 3.27743 22.7963 3.24046 22.7708 3.24046C22.7199 3.22197 22.6689 3.185 22.618 3.185C22.1593 3.185 21.6752 3.185 21.2165 3.185ZM23.6627 2.92617C24.0958 2.90768 24.4525 2.96314 24.8093 2.94466C25.0131 2.94466 25.2169 2.94466 25.4208 2.94466C25.9814 2.94466 26.5674 2.92617 27.128 2.92617C27.2044 2.92617 27.2554 2.87071 27.2299 2.85222C27.2044 2.83373 27.1789 2.79676 27.1534 2.79676C26.8732 2.75978 26.5929 2.74129 26.3126 2.75978C25.9814 2.79676 25.6246 2.83373 25.2934 2.77827C25.2424 2.77827 25.2169 2.77827 25.166 2.77827C24.8347 2.83373 24.478 2.81524 24.1213 2.81524C23.9939 2.81524 23.841 2.81524 23.6627 2.92617ZM131.062 5.69932C131.189 5.69932 131.342 5.71781 131.47 5.71781C131.979 5.75478 132.489 5.79176 132.973 5.90268C133.253 5.97663 133.533 5.95815 133.814 5.8842C133.839 5.8842 133.865 5.86571 133.839 5.84722C133.839 5.82873 133.839 5.79176 133.814 5.77327C133.661 5.71781 133.457 5.69932 133.279 5.68083C132.642 5.66234 131.979 5.62537 131.342 5.60688C131.266 5.60688 131.189 5.60688 131.113 5.62537C131.062 5.64386 131.036 5.66234 131.062 5.69932ZM31.1793 2.79676C31.4087 2.81524 31.536 2.83373 31.6635 2.83373C32.3769 2.83373 33.0903 2.81524 33.7783 2.81524C33.8548 2.81524 33.9312 2.81524 34.0076 2.79676C34.0331 2.79676 34.0841 2.77827 34.1096 2.75978C34.1096 2.75978 34.135 2.72281 34.1096 2.72281C34.0586 2.70432 34.0076 2.66734 33.9567 2.66734C33.3451 2.70432 32.7591 2.63037 32.1476 2.68583C31.8418 2.66734 31.5615 2.70432 31.1793 2.79676ZM35.0268 2.72281C35.2307 2.77827 35.4345 2.77827 35.6384 2.75978C36.2754 2.74129 36.9379 2.72281 37.5749 2.70432C37.6258 2.70432 37.7023 2.68583 37.7532 2.68583C37.8042 2.68583 37.8297 2.64885 37.8042 2.63037C37.8042 2.61188 37.7787 2.61188 37.7532 2.61188C37.3201 2.61188 36.9124 2.63037 36.4792 2.5749C36.3518 2.55642 36.1989 2.55642 36.0461 2.55642C35.6893 2.55642 35.511 2.5749 35.0268 2.72281ZM115.341 4.07241C115.239 4.07241 115.137 4.07241 115.035 4.07241C115.009 4.07241 114.958 4.10938 114.958 4.12787C114.958 4.14636 114.984 4.18333 115.009 4.18333C115.341 4.25728 115.672 4.27577 116.029 4.25728C116.181 4.25728 116.309 4.2388 116.462 4.2388C116.742 4.25728 117.022 4.27577 117.303 4.29426C117.455 4.29426 117.634 4.29426 117.787 4.29426C117.812 4.29426 117.838 4.27577 117.838 4.27577C117.838 4.25728 117.812 4.22031 117.787 4.20182C117.685 4.14636 117.557 4.14636 117.43 4.14636C117.124 4.14636 116.818 4.12787 116.513 4.14636C116.207 4.16484 115.927 4.07241 115.621 4.05392C115.544 4.07241 115.443 4.07241 115.341 4.07241ZM121.532 4.42367C121.456 4.42367 121.405 4.42367 121.328 4.44216C121.303 4.44216 121.277 4.46065 121.227 4.47914C121.252 4.49762 121.277 4.51611 121.328 4.5346C121.405 4.55309 121.481 4.57157 121.558 4.57157C122.067 4.60855 122.577 4.62704 123.087 4.64552C123.112 4.64552 123.138 4.64552 123.138 4.62704C123.163 4.62704 123.163 4.60855 123.163 4.59006C123.163 4.57157 123.163 4.55309 123.138 4.55309C122.908 4.5346 122.653 4.49762 122.424 4.47914C122.144 4.46065 121.838 4.44216 121.532 4.42367ZM91.4656 2.46398C91.3127 2.46398 91.1344 2.48247 90.9815 2.48247C90.956 2.48247 90.905 2.51944 90.905 2.53793C90.905 2.55642 90.9305 2.61188 90.956 2.61188C91.3127 2.66734 91.6694 2.68583 92.0262 2.64886C92.0516 2.64886 92.1026 2.61188 92.1026 2.59339C92.1026 2.57491 92.0771 2.53793 92.0516 2.51944C91.8733 2.46398 91.6694 2.46398 91.4656 2.46398ZM133.432 6.30941C133.483 6.30941 133.508 6.30941 133.533 6.30941C133.559 6.29092 133.584 6.27244 133.61 6.25395C133.584 6.23546 133.559 6.19849 133.533 6.19849C133.304 6.18 133.049 6.14302 132.82 6.12454C132.616 6.12454 132.412 6.10605 132.234 6.06907C132.081 6.05058 131.928 6.05058 131.75 6.0321C131.75 6.0321 131.724 6.05058 131.724 6.06907C131.724 6.08756 131.75 6.10605 131.75 6.10605C131.801 6.12454 131.877 6.12454 131.928 6.14302C132.31 6.16151 132.693 6.19849 133.049 6.27244C133.177 6.29092 133.33 6.29092 133.432 6.30941ZM89.9113 3.49929L89.9368 3.51778C90.4209 3.53626 90.905 3.55475 91.3892 3.55475C91.6694 3.55475 91.9497 3.53626 92.281 3.51778C91.3127 3.40685 91.2108 3.44383 89.9113 3.49929ZM29.2938 2.79676C28.8351 2.68583 28.4275 2.74129 28.0198 2.81524C27.9943 2.81524 27.9943 2.83373 27.9943 2.85222C27.9943 2.87071 27.9943 2.88919 28.0198 2.88919C28.0962 2.90768 28.1727 2.92617 28.2491 2.92617C28.6058 2.92617 28.9371 2.87071 29.2938 2.79676ZM60.66 3.38836C60.5581 3.35139 60.4561 3.31441 60.3287 3.27744C60.2268 3.24046 60.1249 3.25895 60.0484 3.29592C59.972 3.3329 59.9465 3.40685 59.9975 3.44382C60.0739 3.49929 60.1249 3.55475 60.0994 3.6287C60.0994 3.68416 60.2268 3.72114 60.2778 3.70265C60.4052 3.6287 60.5071 3.55475 60.6345 3.4808C60.6345 3.44382 60.6345 3.42534 60.66 3.38836ZM122.373 4.25728C122.348 4.25728 122.45 4.25728 122.552 4.2388C122.577 4.2388 122.628 4.20182 122.628 4.18333C122.628 4.16485 122.628 4.12787 122.602 4.10938C122.526 4.05392 122.424 3.99846 122.348 4.03543C122.093 4.09089 121.838 4.07241 121.583 4.10938C121.558 4.10938 121.558 4.12787 121.558 4.14636C121.558 4.16484 121.583 4.18333 121.583 4.18333C121.762 4.25728 121.991 4.25728 122.373 4.25728ZM123.01 5.16318C123.138 5.14469 123.265 5.14469 123.367 5.1262C123.392 5.1262 123.392 5.10771 123.392 5.08923C123.392 5.07074 123.367 5.01528 123.341 5.01528C123.087 4.99679 122.832 4.95981 122.577 4.94133C122.475 4.94133 122.373 4.95981 122.271 4.95981C122.22 4.95981 122.195 4.9783 122.195 5.01528C122.195 5.03376 122.246 5.07074 122.271 5.07074C122.552 5.1262 122.781 5.14469 123.01 5.16318ZM72.4828 3.31441C72.5847 3.31441 72.6867 3.29592 72.7886 3.27744C72.814 3.27744 72.865 3.24046 72.865 3.22197C72.8905 3.185 72.865 3.12954 72.8395 3.09256C72.6867 2.94466 72.3044 3.01861 72.2535 3.20349C72.2535 3.22197 72.279 3.25895 72.3045 3.27744C72.3809 3.29592 72.4319 3.29592 72.4828 3.31441ZM117.71 3.88753C117.838 3.90602 117.94 3.85056 117.94 3.79509C117.94 3.73963 117.94 3.68417 117.914 3.6287C117.838 3.53627 117.659 3.51778 117.557 3.57324C117.481 3.61022 117.481 3.73963 117.583 3.81358C117.608 3.85056 117.685 3.86904 117.71 3.88753ZM63.3864 3.72114C63.4628 3.72114 63.6157 3.70265 63.7431 3.68416C63.7686 3.68416 63.8195 3.66568 63.845 3.64719C63.845 3.64719 63.845 3.6287 63.845 3.61021C63.845 3.59173 63.8195 3.59173 63.794 3.57324C63.6157 3.53626 63.4373 3.51777 63.259 3.57324C63.208 3.59173 63.157 3.6287 63.1316 3.64719C63.1061 3.66568 63.1825 3.72114 63.259 3.72114C63.2844 3.72114 63.3099 3.72114 63.3864 3.72114ZM19.3565 2.81524C19.2546 2.83373 19.1526 2.83373 19.0507 2.83373C18.9998 2.83373 18.9743 2.85222 18.9743 2.88919C18.9743 2.90768 18.9998 2.90768 19.0252 2.90768C19.2036 2.92617 19.382 2.94466 19.5603 2.96314C19.6113 2.96314 19.6877 2.96314 19.7387 2.94466C19.7642 2.94466 19.7897 2.90768 19.8406 2.88919C19.8151 2.87071 19.7897 2.83373 19.7642 2.83373C19.6368 2.83373 19.5094 2.83373 19.3565 2.81524ZM66.7752 3.00012C66.8517 3.00012 66.9026 3.00012 66.9281 2.98163C66.9536 2.96315 66.9791 2.94466 66.9791 2.90768L66.9536 2.87071C66.8262 2.81524 66.6224 2.83373 66.5204 2.90768L66.5204 2.94466C66.5969 2.98163 66.6988 2.98163 66.7752 3.00012ZM95.8482 3.59173C95.9246 3.57324 95.9501 3.57324 96.0011 3.57324C96.0266 3.55475 96.052 3.53626 96.052 3.49929C96.052 3.49929 96.0266 3.4808 96.0266 3.46231C95.8992 3.42534 95.7718 3.42534 95.6189 3.44383C95.5679 3.44383 95.5424 3.4808 95.5679 3.49929C95.5679 3.51778 95.5934 3.51778 95.5934 3.53626C95.6953 3.57324 95.7718 3.57324 95.8482 3.59173ZM79.6173 3.16651C79.5918 3.14802 79.5918 3.12954 79.5918 3.12954C79.388 3.09256 79.1586 3.09256 78.9293 3.11105C78.8784 3.11105 78.8529 3.12954 78.8783 3.16651C78.8783 3.185 78.9038 3.185 78.9293 3.185C79.1586 3.24046 79.388 3.22197 79.6173 3.16651ZM57.0418 3.70265C56.9653 3.70265 56.8889 3.72114 56.8379 3.72114C56.8125 3.72114 56.787 3.73963 56.787 3.73963C56.7615 3.75811 56.7615 3.79509 56.8125 3.81358C56.8634 3.83206 56.9144 3.86904 56.9653 3.88753C57.0673 3.9245 57.1947 3.90602 57.2711 3.81358C57.2966 3.79509 57.2711 3.73963 57.2456 3.73963C57.1692 3.72114 57.0927 3.72114 57.0418 3.70265ZM71.7184 3.66568C71.8458 3.66568 71.9222 3.61021 71.9477 3.53626C71.9477 3.51778 71.9222 3.4808 71.8968 3.46231C71.7948 3.42534 71.6929 3.44382 71.6165 3.4808C71.5655 3.49929 71.5655 3.57324 71.591 3.59173C71.642 3.6287 71.6929 3.64719 71.7184 3.66568ZM88.6118 3.14802C88.5863 3.12954 88.5608 3.07407 88.5608 3.07407C88.4334 3.07407 88.3315 3.09256 88.2041 3.09256C88.1786 3.09256 88.1786 3.11105 88.1786 3.12954C88.1786 3.14802 88.1786 3.16651 88.1786 3.16651C88.306 3.25895 88.408 3.25895 88.5608 3.20349C88.5608 3.20349 88.5863 3.16651 88.6118 3.14802ZM103.925 2.85222C104.027 2.83373 104.104 2.83373 104.18 2.81525C104.231 2.81525 104.257 2.77827 104.231 2.7413C104.231 2.72281 104.206 2.72281 104.18 2.70432C104.027 2.66735 103.874 2.66735 103.722 2.7413L103.722 2.77827C103.798 2.81525 103.874 2.83373 103.925 2.85222ZM81.1716 3.49929C81.4264 3.51778 81.5538 3.53626 81.6812 3.55475C81.7067 3.55475 81.7321 3.53626 81.7321 3.53626C81.7321 3.49929 81.7067 3.4808 81.6812 3.4808C81.5283 3.46231 81.3754 3.44383 81.1716 3.49929ZM103.034 3.73963C103.136 3.73963 103.187 3.73963 103.212 3.73963C103.237 3.73963 103.288 3.70265 103.314 3.68417C103.339 3.66568 103.263 3.61022 103.187 3.61022C103.059 3.61022 102.957 3.6287 102.83 3.6287C102.804 3.6287 102.779 3.64719 102.779 3.64719C102.804 3.66568 102.804 3.70265 102.855 3.70265C102.932 3.73963 103.008 3.73963 103.034 3.73963ZM83.4393 2.77827C83.4393 2.79676 83.4393 2.79676 83.4138 2.81525C83.4903 2.81525 83.5667 2.83373 83.6432 2.81525C83.7196 2.81525 83.796 2.83373 83.847 2.77827C83.7196 2.77827 83.5667 2.77827 83.4393 2.77827ZM43.5882 3.85055C43.5882 3.83206 43.5882 3.81358 43.5627 3.81358C43.4863 3.75811 43.3844 3.75811 43.3079 3.81358C43.2824 3.83206 43.2824 3.86904 43.2824 3.88753C43.3589 3.97997 43.5118 3.97997 43.5627 3.88753C43.5882 3.88753 43.5882 3.86904 43.5882 3.85055ZM96.2559 3.14802C96.2559 3.09256 96.2304 3.0371 96.1794 3.05559C96.154 3.05559 96.103 3.07407 96.0775 3.09256C96.052 3.11105 96.0266 3.14802 96.0266 3.16651C96.0011 3.20349 96.052 3.25895 96.103 3.25895C96.2049 3.24046 96.2559 3.22197 96.2559 3.14802ZM84.3566 3.12954C84.3311 3.11105 84.3056 3.07407 84.2802 3.07407C84.2037 3.07407 84.1273 3.09256 84.0508 3.09256C84.0254 3.09256 83.9999 3.11105 83.9999 3.11105C83.9999 3.12954 84.0254 3.16651 84.0254 3.185C84.1018 3.24046 84.2037 3.24046 84.2802 3.185C84.3311 3.185 84.3311 3.14802 84.3566 3.12954ZM23.0002 2.87071C22.8218 2.85222 22.8218 2.85222 22.6689 2.88919C22.7708 2.88919 22.8728 2.92617 23.0002 2.87071ZM69.8329 3.57324C69.8329 3.55475 69.8329 3.53626 69.8074 3.51778C69.7564 3.4808 69.7055 3.46231 69.6545 3.49929C69.629 3.51778 69.6035 3.53626 69.6035 3.57324C69.6035 3.59173 69.6545 3.6287 69.68 3.6287C69.7309 3.61021 69.7819 3.59173 69.8329 3.57324ZM117.685 4.86737C117.71 4.86737 117.736 4.84889 117.736 4.84889C117.736 4.8304 117.736 4.81191 117.736 4.81191C117.659 4.79342 117.608 4.75645 117.532 4.73796C117.506 4.73796 117.481 4.73796 117.481 4.73796C117.481 4.75645 117.481 4.79342 117.481 4.81191C117.532 4.86738 117.608 4.88586 117.685 4.86737ZM85.0701 3.49929C85.172 3.49929 85.2229 3.4808 85.2229 3.44383C85.2229 3.40685 85.1975 3.38836 85.1465 3.38836C85.0955 3.38836 85.0446 3.40685 85.0191 3.44383C85.0191 3.4808 85.0446 3.49929 85.0701 3.49929ZM76.4068 3.14802C76.3813 3.12954 76.3303 3.09256 76.3048 3.07407C76.2539 3.05558 76.2029 3.09256 76.152 3.12954C76.1265 3.16651 76.152 3.22197 76.2029 3.24046C76.3048 3.25895 76.3813 3.22197 76.4068 3.14802ZM50.2385 3.81358C50.264 3.81358 50.2895 3.81358 50.2895 3.81358C50.366 3.79509 50.4169 3.73963 50.4424 3.68416C50.4424 3.66568 50.4169 3.6287 50.3914 3.61021L50.3405 3.61021C50.2385 3.64719 50.1876 3.68416 50.2131 3.7766C50.2131 3.7766 50.2385 3.79509 50.2385 3.81358ZM75.0818 4.42367C75.0818 4.38669 75.0563 4.36821 75.0054 4.36821C74.9544 4.36821 74.9289 4.38669 74.9289 4.42367C74.9289 4.46065 74.9544 4.47913 75.0054 4.47913C75.0563 4.47913 75.0818 4.46065 75.0818 4.42367ZM130.756 6.0321C130.782 6.0321 130.833 6.0321 130.858 6.0321C130.884 6.0321 130.909 5.99512 130.909 5.97663L130.884 5.95815C130.807 5.95815 130.731 5.93966 130.654 5.95815C130.629 5.95815 130.603 5.99512 130.578 6.01361C130.603 6.01361 130.603 6.0321 130.629 6.0321C130.68 6.0321 130.705 6.0321 130.756 6.0321ZM106.219 2.77827C106.168 2.77827 106.091 2.83373 106.117 2.85222C106.142 2.87071 106.168 2.8892 106.219 2.8892C106.244 2.8892 106.27 2.8892 106.27 2.8892C106.295 2.87071 106.346 2.85222 106.346 2.83373C106.346 2.81525 106.321 2.79676 106.27 2.77827C106.27 2.77827 106.244 2.77827 106.219 2.77827ZM87.1594 3.185C87.2104 3.185 87.2359 3.185 87.2359 3.185C87.2868 3.185 87.3123 3.16651 87.2868 3.14802C87.2868 3.14802 87.2614 3.12954 87.2359 3.12954C87.2104 3.12954 87.1849 3.12954 87.1849 3.12954C87.134 3.12954 87.083 3.14802 87.032 3.16651C87.083 3.14802 87.134 3.16651 87.1594 3.185ZM80.5601 2.83373C80.5601 2.81525 80.5601 2.79676 80.5601 2.77827C80.5091 2.77827 80.4581 2.75978 80.4072 2.75978C80.3817 2.75978 80.3562 2.77827 80.3562 2.77827C80.3817 2.79676 80.3817 2.83373 80.4072 2.83373C80.4581 2.85222 80.5091 2.83373 80.5601 2.83373ZM109.531 3.92451C109.557 3.92451 109.608 3.94299 109.658 3.94299C109.709 3.94299 109.76 3.88753 109.76 3.85055C109.735 3.81358 109.658 3.79509 109.608 3.81358C109.531 3.83207 109.48 3.86904 109.531 3.92451ZM118.271 4.05392C118.322 4.05392 118.398 4.05392 118.424 4.03543C118.449 4.03543 118.449 3.99846 118.475 3.96148C118.449 3.94299 118.398 3.92451 118.373 3.92451C118.347 3.92451 118.296 3.94299 118.271 3.96148C118.245 3.97997 118.271 4.01694 118.271 4.05392ZM120.258 4.40518C120.258 4.3867 120.258 4.36821 120.233 4.36821C120.156 4.33123 120.08 4.33123 120.003 4.36821C120.003 4.36821 119.978 4.40518 120.003 4.40518C120.029 4.44216 120.105 4.46065 120.156 4.44216C120.207 4.44216 120.233 4.40518 120.258 4.40518ZM51.2832 3.68416C51.2832 3.66568 51.2578 3.64719 51.2578 3.64719C51.2068 3.64719 51.1558 3.64719 51.0794 3.64719C51.0539 3.64719 51.0284 3.66568 51.0284 3.66568C51.0539 3.68416 51.0539 3.72114 51.0794 3.72114C51.2068 3.73963 51.3087 3.72114 51.2832 3.68416ZM45.1935 3.24046C45.2189 3.22197 45.2699 3.20348 45.2699 3.185C45.2954 3.14802 45.2189 3.11105 45.168 3.11105C45.1425 3.11105 45.0915 3.14802 45.0915 3.16651C45.0661 3.22197 45.117 3.25895 45.1935 3.24046ZM56.3029 3.51777C56.3283 3.51777 56.3283 3.53626 56.3538 3.53626C56.4048 3.53626 56.4303 3.53626 56.4812 3.51777C56.5067 3.51777 56.5067 3.49929 56.5067 3.4808C56.5067 3.44382 56.4303 3.42534 56.3538 3.44382C56.3028 3.46231 56.2774 3.4808 56.3029 3.51777ZM112.41 4.05392C112.461 4.05392 112.487 4.05392 112.487 4.01694C112.487 3.99846 112.461 3.99846 112.436 3.99846C112.41 3.99846 112.359 3.99846 112.334 4.01694C112.308 4.03543 112.359 4.05392 112.41 4.05392ZM47.6141 3.97997C47.665 3.97997 47.6905 3.96148 47.6905 3.9245C47.665 3.90602 47.6396 3.88753 47.5886 3.88753C47.5631 3.88753 47.5122 3.90602 47.4867 3.9245C47.4867 3.9245 47.4867 3.96148 47.5122 3.96148C47.5377 3.97997 47.5631 3.97997 47.6141 3.97997ZM104.537 3.7766C104.537 3.75812 104.562 3.73963 104.562 3.70265C104.562 3.70265 104.537 3.68417 104.511 3.68417C104.486 3.70265 104.461 3.72114 104.461 3.73963C104.461 3.7766 104.486 3.79509 104.537 3.7766ZM83.3629 3.51778C83.3884 3.51778 83.4138 3.49929 83.4648 3.49929C83.4393 3.4808 83.4393 3.46231 83.4393 3.46231C83.4138 3.46231 83.3629 3.4808 83.3374 3.4808C83.3374 3.49929 83.3374 3.49929 83.3629 3.51778ZM73.3237 3.53626C73.3491 3.53626 73.3746 3.51778 73.3746 3.51778C73.4001 3.4808 73.3491 3.46231 73.2982 3.4808C73.2727 3.4808 73.2472 3.49929 73.2217 3.51778C73.2472 3.51778 73.2472 3.53626 73.2727 3.53626C73.2727 3.53626 73.2982 3.53626 73.3237 3.53626ZM129.38 5.92117C129.406 5.92117 129.431 5.92117 129.431 5.92117C129.457 5.92117 129.457 5.90268 129.457 5.90268C129.431 5.90268 129.406 5.8842 129.355 5.8842L129.329 5.90268C129.355 5.90268 129.38 5.90268 129.38 5.92117ZM106.83 3.11105C106.83 3.12954 106.83 3.14802 106.856 3.14802C106.907 3.16651 106.932 3.14802 106.932 3.12954C106.932 3.11105 106.932 3.09256 106.907 3.09256C106.881 3.05559 106.856 3.07407 106.83 3.11105ZM113.812 4.05392C113.812 4.03543 113.812 4.01694 113.812 4.01694C113.786 4.01694 113.735 4.01694 113.71 4.01694C113.71 4.03543 113.71 4.05392 113.735 4.05392C113.761 4.09089 113.786 4.09089 113.812 4.05392ZM109.557 3.61022C109.582 3.61022 109.633 3.59173 109.658 3.59173C109.658 3.57324 109.633 3.53626 109.633 3.53626C109.608 3.53626 109.557 3.53626 109.557 3.55475C109.48 3.57324 109.506 3.59173 109.557 3.61022ZM108.767 3.86904C108.792 3.86904 108.818 3.85055 108.869 3.85055C108.869 3.83207 108.869 3.81358 108.843 3.81358C108.818 3.81358 108.792 3.81358 108.741 3.83207C108.767 3.85055 108.767 3.86904 108.767 3.86904ZM56.8889 5.21864L56.8634 5.20015L56.8379 5.23713L56.8889 5.21864ZM108.053 3.86904C108.079 3.86904 108.079 3.85055 108.104 3.85055C108.104 3.83207 108.079 3.83207 108.079 3.83207C108.028 3.81358 108.002 3.83207 108.028 3.86904C108.002 3.86904 108.028 3.86904 108.053 3.86904ZM106.881 2.90768C106.932 2.90768 106.958 2.8892 106.958 2.87071C106.958 2.85222 106.932 2.83373 106.932 2.83373C106.907 2.83373 106.881 2.85222 106.83 2.85222C106.856 2.87071 106.881 2.8892 106.881 2.90768ZM60.2268 3.07407C60.2523 3.07407 60.2523 3.05558 60.2778 3.05558C60.2778 3.0371 60.2523 3.0371 60.2523 3.01861C60.2013 3.00012 60.1758 3.01861 60.2013 3.05558C60.1758 3.07407 60.2013 3.07407 60.2268 3.07407ZM61.1186 3.44382C61.0931 3.4808 61.1186 3.49929 61.1696 3.4808L61.1696 3.44382C61.1441 3.44382 61.1186 3.44382 61.1186 3.44382ZM53.8313 3.64719L53.8313 3.68416L53.8822 3.66568L53.8313 3.64719ZM90.5228 3.14802L90.5483 3.16651C90.5993 3.16651 90.6247 3.14802 90.5993 3.12954C90.5993 3.12954 90.5738 3.12954 90.5483 3.12954C90.5483 3.12954 90.5228 3.12954 90.5228 3.14802ZM99.0078 3.59173C99.0332 3.59173 99.0332 3.59173 99.0587 3.57324L99.0332 3.55475C99.0332 3.55475 99.0078 3.55475 98.9823 3.57324C98.9823 3.59173 98.9823 3.59173 99.0078 3.59173ZM74.1135 3.51778C74.1645 3.51778 74.2155 3.53626 74.2155 3.46231C74.2155 3.46231 74.1645 3.46231 74.1135 3.46231L74.0881 3.4808C74.0881 3.51778 74.1135 3.51778 74.1135 3.51778ZM125.456 5.21864L125.482 5.23713L125.507 5.21864L125.482 5.20015C125.482 5.20015 125.456 5.20015 125.456 5.21864ZM128.106 4.40518C128.132 4.40518 128.132 4.3867 128.157 4.3867L128.132 4.36821C128.132 4.36821 128.106 4.36821 128.081 4.3867C128.081 4.3867 128.081 4.3867 128.106 4.40518ZM122.934 5.47747C122.959 5.47747 122.959 5.45898 122.985 5.45898C122.985 5.44049 122.959 5.44049 122.959 5.422C122.908 5.40352 122.883 5.422 122.908 5.45898C122.883 5.47747 122.908 5.47747 122.934 5.47747ZM38.9508 3.35139L39.0018 3.35139C39.0272 3.31441 39.0018 3.31441 38.9508 3.31441C38.9253 3.31441 38.9253 3.3329 38.8998 3.3329C38.8998 3.3329 38.9253 3.3329 38.9508 3.35139ZM30.4659 2.79676C30.4659 2.77827 30.4404 2.75978 30.4404 2.75978C30.4149 2.75978 30.364 2.75978 30.3385 2.77827C30.3385 2.79676 30.364 2.81524 30.364 2.81524C30.3894 2.81524 30.4149 2.79676 30.4659 2.79676ZM62.622 3.00012C62.6474 3.00012 62.6474 3.01861 62.6729 3.00012L62.6984 2.98163C62.6984 2.94466 62.6474 2.94466 62.622 2.96315C62.5965 2.96315 62.622 2.98163 62.622 3.00012ZM126.628 4.10938C126.603 4.09089 126.603 4.09089 126.577 4.09089C126.552 4.09089 126.552 4.10938 126.526 4.10938C126.552 4.12787 126.552 4.12787 126.577 4.12787C126.577 4.12787 126.603 4.12787 126.628 4.10938ZM65.6796 2.59339C65.6541 2.59339 65.6541 2.57491 65.6286 2.59339C65.5777 2.61188 65.5777 2.63037 65.6286 2.63037C65.6286 2.63037 65.6541 2.63037 65.6796 2.63037C65.6796 2.61188 65.6796 2.61188 65.6796 2.59339ZM99.7467 2.94466C99.7212 2.94466 99.7212 2.92617 99.6957 2.92617C99.6448 2.94466 99.6448 2.96315 99.6957 2.98164L99.7467 2.98164C99.7467 2.98164 99.7467 2.96315 99.7467 2.94466ZM128.336 5.81025L128.31 5.79176L128.31 5.81025L128.336 5.81025ZM73.1453 2.8892L73.1453 2.85222L73.0943 2.87071L73.1453 2.8892ZM128.641 5.55142L128.692 5.53293L128.667 5.51444L128.641 5.55142ZM68.5843 4.55308L68.6098 4.57157L68.6098 4.55308L68.5843 4.55308ZM101.479 3.6287C101.505 3.6287 101.505 3.6287 101.53 3.61022C101.53 3.59173 101.53 3.57324 101.505 3.57324C101.505 3.57324 101.479 3.57324 101.454 3.59173C101.454 3.61021 101.454 3.61022 101.479 3.6287ZM92.5103 3.14802L92.4848 3.12954L92.4593 3.14802L92.4848 3.16651C92.4848 3.16651 92.4848 3.14802 92.5103 3.14802ZM100.205 3.14802L100.18 3.12954C100.18 3.12954 100.154 3.12954 100.129 3.14802L100.154 3.16651C100.18 3.14802 100.205 3.14802 100.205 3.14802ZM78.2923 3.51778L78.2923 3.4808L78.2413 3.49929L78.2923 3.51778ZM110.397 4.47913C110.448 4.49762 110.474 4.47913 110.448 4.44216C110.448 4.44216 110.423 4.44216 110.397 4.44216C110.397 4.46065 110.397 4.47913 110.397 4.47913ZM114.704 3.7766L114.755 3.75812L114.729 3.73963L114.704 3.7766ZM59.2076 3.07407C59.2331 3.07407 59.2331 3.05558 59.2586 3.05558L59.2331 3.0371C59.2331 3.0371 59.2076 3.05558 59.1821 3.05558C59.1821 3.05558 59.1821 3.07407 59.2076 3.07407ZM59.386 3.68416C59.386 3.66568 59.3605 3.64719 59.3605 3.64719C59.335 3.64719 59.3095 3.66568 59.2586 3.66568C59.2586 3.68416 59.284 3.70265 59.284 3.70265C59.3095 3.70265 59.335 3.68416 59.386 3.68416ZM135.241 6.34639L135.266 6.36488L135.292 6.34639L135.266 6.3279C135.266 6.3279 135.266 6.3279 135.241 6.34639ZM122.883 3.86904C122.934 3.88753 122.959 3.86904 122.934 3.83207C122.934 3.83207 122.908 3.83207 122.883 3.83207C122.857 3.83207 122.883 3.85056 122.883 3.86904ZM61.0167 3.07407C61.0422 3.07407 61.0677 3.07407 61.0677 3.05558C61.0677 3.01861 61.0677 3.01861 61.0167 3.01861L60.9912 3.0371C60.9912 3.05558 61.0167 3.07407 61.0167 3.07407ZM82.3437 4.3867L82.3182 4.36821C82.3182 4.36821 82.2927 4.3867 82.2672 4.3867L82.2927 4.40518C82.3182 4.40518 82.3437 4.40518 82.3437 4.3867ZM56.099 3.11105C56.099 3.12953 56.099 3.12953 56.099 3.14802C56.1245 3.14802 56.1245 3.14802 56.15 3.14802C56.15 3.12953 56.15 3.11105 56.15 3.11105C56.15 3.11105 56.1245 3.11105 56.099 3.11105ZM91.0324 3.09256C91.0579 3.09256 91.0834 3.09256 91.0834 3.07407C91.0834 3.07407 91.0834 3.05559 91.0579 3.0371C91.0324 3.0371 91.007 3.0371 91.007 3.05559C91.0324 3.07407 91.0324 3.09256 91.0324 3.09256ZM87.032 2.79676L87.032 2.75978L86.9811 2.77827L87.032 2.79676ZM36.734 3.42534L36.734 3.38836L36.6831 3.40685L36.734 3.42534ZM47.4867 3.3329L47.4867 3.31441L47.4357 3.31441L47.4867 3.3329ZM120.36 3.7766C120.386 3.7766 120.386 3.7766 120.411 3.75812L120.386 3.73963C120.386 3.73963 120.36 3.73963 120.36 3.75812C120.335 3.75812 120.36 3.7766 120.36 3.7766ZM119.902 4.01694L119.902 4.03543L119.927 4.01694L119.902 4.01694Z" fill="white"/>
<path d="M57.8317 2.07574C58.1629 2.03876 58.4432 2.03876 58.7235 1.9833C58.7999 1.96481 58.8764 1.96481 58.9528 1.96481C59.3605 1.9833 59.7682 1.94633 60.1758 1.90935C60.2268 1.90935 60.2523 1.90935 60.3033 1.90935C60.3287 1.90935 60.3797 1.92784 60.4052 1.94633C60.4561 2.00179 60.4052 2.02028 60.3542 2.03876C60.3287 2.05725 60.2778 2.07574 60.2778 2.09423C60.2778 2.14969 60.3542 2.14969 60.4052 2.16818C60.5326 2.18666 60.6855 2.20515 60.8383 2.18666C61.1696 2.14969 61.4753 2.16818 61.8066 2.16818C61.8575 2.16818 61.883 2.16818 61.934 2.18666C61.9595 2.20515 61.9849 2.22364 62.0104 2.26062L61.9849 2.29759C61.7301 2.37154 61.4499 2.427 61.1696 2.37154C60.9403 2.33457 60.7364 2.33457 60.5071 2.33457C60.0739 2.33457 59.6153 2.31608 59.1821 2.31608C59.1821 2.31608 59.1566 2.2791 59.1821 2.2791C59.3095 2.22364 59.4624 2.2791 59.5898 2.24213C59.6408 2.22364 59.6662 2.20515 59.6408 2.18666C59.6408 2.16818 59.6153 2.16818 59.5898 2.16818C59.284 2.14969 58.9783 2.14969 58.6725 2.14969C58.3668 2.09423 58.112 2.09423 57.8317 2.07574Z" fill="white"/>
<path d="M51.8693 2.48247C51.3597 2.48247 50.8501 2.48247 50.3405 2.48247C50.1366 2.48247 49.9328 2.50095 49.7544 2.5749C49.6525 2.61188 49.5506 2.61188 49.4487 2.59339C49.2958 2.5749 49.1939 2.51944 49.2193 2.48247C49.2703 2.427 49.3467 2.40852 49.4232 2.40852C49.6525 2.40852 49.8818 2.39003 50.0857 2.40852C50.366 2.427 50.6462 2.427 50.952 2.40852C51.0794 2.40852 51.2068 2.39003 51.3087 2.40852C51.64 2.427 51.9457 2.40852 52.277 2.37154C52.7101 2.33457 53.1178 2.35305 53.551 2.35305C53.6019 2.35305 53.6274 2.37154 53.6784 2.37154C53.7039 2.37154 53.7039 2.39003 53.7293 2.40852C53.7548 2.44549 53.7293 2.48247 53.7039 2.48247C53.5765 2.50095 53.4236 2.51944 53.2707 2.51944C52.914 2.48247 52.5318 2.50095 52.175 2.51944C52.0731 2.48247 51.9712 2.48247 51.8693 2.48247Z" fill="white"/>
<path d="M53.2962 2.09423C53.2707 2.09423 53.2707 2.11271 53.2452 2.11271C53.0159 2.1312 52.7611 2.14969 52.5318 2.18666C52.4808 2.18666 52.4553 2.20515 52.4044 2.20515C51.8693 2.20515 51.3597 2.24213 50.8246 2.24213C50.7227 2.24213 50.6208 2.22364 50.5443 2.16818C50.5443 2.16818 50.5188 2.14969 50.5443 2.1312C50.5443 2.11271 50.5698 2.11271 50.5698 2.09423C50.5953 2.07574 50.5953 2.07574 50.6208 2.07574C51.4871 2.03876 52.3534 2.00179 53.2452 2.03876C53.2707 2.03876 53.2707 2.05725 53.2962 2.05725C53.2707 2.07574 53.2707 2.07574 53.2962 2.09423Z" fill="white"/>
<path d="M101.454 2.63037C101.403 2.63037 101.275 2.63037 101.174 2.61188C101.148 2.61188 101.123 2.57491 101.123 2.53793C101.123 2.51944 101.174 2.48247 101.199 2.48247C101.403 2.48247 101.607 2.48247 101.785 2.50096C101.811 2.50096 101.836 2.53793 101.836 2.55642C101.836 2.57491 101.785 2.61188 101.76 2.61188C101.658 2.63037 101.581 2.63037 101.454 2.63037Z" fill="white"/>
<path d="M56.4557 2.11271C56.3793 2.11271 56.3028 2.11271 56.2264 2.11271C56.2009 2.11271 56.1755 2.09423 56.15 2.07574C56.15 2.05725 56.1755 2.05725 56.1755 2.03876C56.4048 1.96481 56.6596 1.94633 56.9399 1.96481C56.9653 1.96481 56.9908 1.9833 56.9908 1.9833C56.9908 2.00179 56.9653 2.03876 56.9399 2.03876C56.787 2.07574 56.6341 2.09423 56.4557 2.11271Z" fill="white"/>
<path d="M12.8335 2.70432C12.6807 2.75978 12.5533 2.74129 12.4259 2.74129C12.1711 2.7228 11.8908 2.74129 11.636 2.68583C11.6105 2.68583 11.6105 2.66734 11.6105 2.64885C11.6105 2.63037 11.636 2.61188 11.636 2.61188C11.8908 2.63037 12.1456 2.64885 12.4259 2.63037C12.5788 2.63037 12.6807 2.64885 12.8335 2.70432Z" fill="white"/>
<path d="M54.7231 2.03876C54.6976 2.05725 54.6976 2.07574 54.6721 2.09423C54.5447 2.18666 54.3918 2.20515 54.2135 2.16818C54.1625 2.14969 54.0861 2.09423 54.1115 2.07574C54.137 2.05725 54.1625 2.02028 54.188 2.02028C54.3154 1.9833 54.4683 1.94633 54.5957 1.96481C54.6466 1.96481 54.6976 2.02028 54.7231 2.03876Z" fill="white"/>
<path d="M99.1861 2.55642C98.9058 2.53793 98.7784 2.61188 98.6255 2.53793C98.6001 2.53793 98.6001 2.51944 98.6001 2.50096C98.6001 2.48247 98.6001 2.48247 98.6255 2.46398C98.6255 2.44549 98.651 2.44549 98.6765 2.44549C98.9568 2.44549 99.2371 2.44549 99.5174 2.46398C99.5428 2.46398 99.5683 2.50096 99.5938 2.51944C99.5683 2.51944 99.5683 2.53793 99.5428 2.53793C99.3645 2.55642 99.2116 2.55642 99.1861 2.55642Z" fill="white"/>
<path d="M118.551 3.09256C118.78 3.09256 118.984 3.09256 119.214 3.09256C119.341 3.09256 119.443 3.12954 119.519 3.20349C119.545 3.22197 119.519 3.25895 119.494 3.27744C119.468 3.29593 119.417 3.31441 119.392 3.31441C119.163 3.22198 118.908 3.22198 118.653 3.14802C118.628 3.12954 118.602 3.11105 118.551 3.09256Z" fill="white"/>
<path d="M66.444 1.94633C66.393 1.92784 66.2911 1.90935 66.1892 1.89086C66.1637 1.89086 66.1637 1.87238 66.1637 1.85389C66.1892 1.8354 66.1892 1.79842 66.2147 1.77994C66.3421 1.74296 66.444 1.74296 66.5459 1.79842C66.5714 1.81691 66.5969 1.8354 66.5969 1.87238C66.5969 1.89086 66.5459 1.90935 66.5204 1.90935C66.5459 1.94633 66.5204 1.94633 66.444 1.94633Z" fill="white"/>
<path d="M141.764 6.79009C142.018 6.7716 142.222 6.80858 142.426 6.86404C142.171 6.90102 142.171 6.90102 141.764 6.79009Z" fill="white"/>
<path d="M71.2598 2.05725C71.4891 2.05725 71.6929 2.03876 71.8968 2.03876C71.9477 2.03876 71.9732 2.05725 71.9732 2.09423C71.9732 2.11271 71.9477 2.11271 71.9222 2.11271C71.6929 2.1312 71.4891 2.11271 71.2598 2.05725Z" fill="white"/>
<path d="M104.817 2.26062C105.123 2.20515 105.327 2.18667 105.531 2.24213C105.276 2.31608 105.276 2.31608 104.817 2.26062Z" fill="white"/>
<path d="M107.009 2.33457C106.703 2.39003 106.703 2.39003 106.448 2.35306C106.448 2.35306 106.423 2.33457 106.448 2.31608C106.448 2.29759 106.473 2.29759 106.499 2.29759C106.652 2.26062 106.83 2.29759 107.009 2.33457Z" fill="white"/>
<path d="M57.5259 2.37154C57.4749 2.37154 57.3985 2.35305 57.3475 2.35305C57.3221 2.35305 57.2966 2.33457 57.2966 2.33457C57.2966 2.31608 57.3221 2.2791 57.3475 2.26062C57.4495 2.20515 57.5769 2.22364 57.7043 2.24213C57.7298 2.24213 57.7807 2.2791 57.7807 2.29759C57.7807 2.31608 57.7552 2.35305 57.7043 2.35305C57.6278 2.37154 57.5769 2.37154 57.5259 2.37154Z" fill="white"/>
<path d="M71.1833 1.70599C71.3872 1.72447 71.591 1.6875 71.7694 1.77994C71.4636 1.85389 71.4636 1.85389 71.1833 1.70599Z" fill="white"/>
<path d="M69.629 2.09423C69.8074 2.05725 69.8329 2.03876 69.8838 2.03876C69.9348 2.03876 70.0112 2.03876 70.0622 2.03876C70.1641 2.03876 70.266 2.05725 70.3934 2.09423C70.1896 2.09423 69.9857 2.09423 69.629 2.09423Z" fill="white"/>
<path d="M55.8952 2.37154C56.1245 2.26062 56.2519 2.24213 56.4048 2.29759L56.4048 2.33457C56.2519 2.39003 56.0735 2.33457 55.8952 2.37154Z" fill="white"/>
<path d="M118.22 3.22198C117.94 3.25895 117.71 3.16651 117.43 3.16651C117.404 3.16651 117.379 3.16651 117.379 3.16651L117.379 3.14802C117.659 3.11105 117.94 3.185 118.22 3.22198Z" fill="white"/>
<path d="M92.9435 2.1312C92.867 2.1312 92.7906 2.09423 92.8161 2.07574C92.8415 2.05725 92.867 2.02028 92.8925 2.02028C92.9435 2.00179 93.0199 2.00179 93.0709 2.00179C93.0963 2.00179 93.1218 2.00179 93.1218 2.02028C93.1473 2.02028 93.1473 2.03877 93.1728 2.05725C93.1983 2.09423 93.1728 2.11272 93.1218 2.1312C93.0963 2.1312 93.0963 2.14969 93.0709 2.14969C93.0199 2.1312 92.9944 2.1312 92.9435 2.1312Z" fill="white"/>
<path d="M63.6921 2.16818C63.5647 2.22364 63.4373 2.24213 63.3099 2.24213C63.3099 2.24213 63.2844 2.22364 63.2844 2.20515C63.2844 2.18666 63.2844 2.16818 63.3099 2.16818C63.4373 2.14969 63.5647 2.1312 63.6921 2.16818Z" fill="white"/>
<path d="M90.4973 1.70599C90.6757 1.6875 90.8286 1.66901 90.9815 1.70599C90.956 1.72448 90.905 1.74296 90.8796 1.74296C90.7521 1.74296 90.6247 1.76145 90.4973 1.70599Z" fill="white"/>
<path d="M116.258 3.14802C116.232 3.12954 116.207 3.12954 116.181 3.11105C116.207 3.09256 116.232 3.07407 116.258 3.05559C116.334 3.0371 116.411 3.09256 116.36 3.11105C116.334 3.14802 116.309 3.14802 116.258 3.14802Z" fill="white"/>
<path d="M110.346 2.77827C110.194 2.81525 110.066 2.8892 109.888 2.85222C109.862 2.85222 109.862 2.83373 109.862 2.81525C109.862 2.79676 109.862 2.77827 109.888 2.77827C110.041 2.7413 110.194 2.79676 110.346 2.77827Z" fill="white"/>
<path d="M103.492 2.29759C103.441 2.29759 103.416 2.2791 103.416 2.24213C103.416 2.22364 103.441 2.22364 103.467 2.22364C103.492 2.20515 103.543 2.20515 103.569 2.20515C103.594 2.20515 103.645 2.22364 103.671 2.24213C103.645 2.26062 103.62 2.29759 103.594 2.29759C103.569 2.29759 103.518 2.29759 103.492 2.29759Z" fill="white"/>
<path d="M73.4765 2.46398C73.4511 2.44549 73.4256 2.44549 73.4001 2.427C73.4256 2.427 73.4256 2.40852 73.4511 2.40852C73.4765 2.40852 73.5275 2.40852 73.553 2.40852C73.6039 2.40852 73.6294 2.427 73.6039 2.44549C73.6039 2.44549 73.5785 2.46398 73.553 2.46398C73.553 2.46398 73.5275 2.46398 73.4765 2.46398Z" fill="white"/>
<path d="M48.2511 2.55642C48.2256 2.53793 48.1747 2.53793 48.1492 2.51944C48.1237 2.50095 48.1747 2.46398 48.2511 2.46398C48.2766 2.46398 48.302 2.46398 48.302 2.46398C48.3275 2.48247 48.353 2.50095 48.3785 2.51944C48.353 2.53793 48.3275 2.53793 48.2766 2.55642C48.2766 2.55642 48.2766 2.55642 48.2511 2.55642Z" fill="white"/>
<path d="M63.259 1.9833C63.1316 1.9833 63.0806 1.96481 63.1316 1.94633C63.157 1.94633 63.208 1.94633 63.2335 1.94633C63.259 1.94633 63.2844 1.96481 63.3099 1.9833C63.3099 1.9833 63.2844 1.9833 63.259 1.9833Z" fill="white"/>
<path d="M85.2484 2.42701C85.2229 2.44549 85.172 2.44549 85.1465 2.44549C85.0955 2.44549 85.0701 2.40852 85.0955 2.39003C85.121 2.37154 85.172 2.35305 85.1975 2.37154C85.2229 2.37154 85.2229 2.40852 85.2484 2.42701Z" fill="white"/>
<path d="M92.4848 1.70599C92.4084 1.70599 92.3829 1.72448 92.3574 1.72448C92.3319 1.72448 92.3064 1.72448 92.281 1.70599C92.3064 1.70599 92.3064 1.70599 92.3319 1.70599C92.3829 1.70599 92.4084 1.70599 92.4848 1.70599Z" fill="white"/>
<path d="M71.1833 1.70599C71.1069 1.74296 71.005 1.77994 70.9285 1.79842C70.903 1.79842 70.8775 1.77994 70.8521 1.76145L70.8776 1.72447C70.9795 1.72447 71.0814 1.72447 71.1833 1.70599Z" fill="white"/>
<path d="M81.9869 2.48247C82.0379 2.44549 82.0634 2.40852 82.1143 2.39003C82.1398 2.37154 82.1908 2.37154 82.2163 2.39003C82.2417 2.40852 82.2672 2.44549 82.2672 2.46398C82.2672 2.50096 82.2417 2.55642 82.2417 2.59339L82.2672 2.57491C82.1653 2.53793 82.0889 2.50096 81.9869 2.48247Z" fill="white"/>
<path d="M75.1837 1.6875C75.2092 1.70599 75.2347 1.72447 75.2602 1.74296C75.2347 1.76145 75.2092 1.77994 75.1837 1.77994C75.1073 1.77994 75.0563 1.72447 75.0818 1.70599C75.1073 1.70599 75.1328 1.70599 75.1837 1.6875Z" fill="white"/>
<path d="M148.924 0.0605899C148.873 0.0605899 148.847 0.0421022 148.847 0.0236146C148.847 0.00512695 148.924 0.00512695 148.949 0.00512695C148.975 0.00512695 149 0.0236146 149 0.0236146C149 0.0421022 148.975 0.0605899 148.924 0.0605899Z" fill="white"/>
<path d="M64.2782 1.89086C64.2782 1.87238 64.2782 1.87238 64.3036 1.85389C64.3291 1.85389 64.3291 1.85389 64.3546 1.85389C64.3546 1.85389 64.3801 1.87238 64.3801 1.89086C64.3546 1.89086 64.3546 1.90935 64.3291 1.90935C64.3291 1.90935 64.3036 1.90935 64.2782 1.89086Z" fill="white"/>
<path d="M131.113 4.34972C131.138 4.34972 131.164 4.33123 131.215 4.33123C131.215 4.33123 131.24 4.34972 131.24 4.36821C131.215 4.36821 131.189 4.3867 131.138 4.3867C131.113 4.3867 131.113 4.36821 131.113 4.34972Z" fill="white"/>
<path d="M105.403 2.02028C105.378 2.02028 105.352 2.02028 105.352 2.00179C105.352 1.96482 105.378 1.96482 105.429 1.96482L105.454 1.9833C105.454 2.00179 105.429 2.00179 105.403 2.02028Z" fill="white"/>
<path d="M75.2602 2.09423L75.2347 2.07574C75.2602 2.05725 75.2856 2.05725 75.3111 2.09423C75.3111 2.07574 75.2856 2.09423 75.2602 2.09423Z" fill="white"/>
<path d="M76.1775 1.81691C76.1775 1.79843 76.152 1.79843 76.152 1.77994C76.152 1.76145 76.1774 1.76145 76.2029 1.76145C76.2539 1.76145 76.2539 1.79843 76.2284 1.81691C76.2029 1.81691 76.1775 1.81691 76.1775 1.81691Z" fill="white"/>
<path d="M77.2986 1.81691C77.2731 1.81691 77.2731 1.8354 77.2476 1.8354C77.2221 1.8354 77.2221 1.81691 77.1967 1.81691C77.2221 1.81691 77.2221 1.79842 77.2476 1.79842C77.2731 1.77994 77.2731 1.79843 77.2986 1.81691Z" fill="white"/>
<path d="M143.369 6.97497C143.343 6.97497 143.343 6.95648 143.318 6.95648L143.343 6.93799C143.394 6.93799 143.42 6.93799 143.394 6.97497C143.42 6.97497 143.394 6.97497 143.369 6.97497Z" fill="white"/>
<path d="M88.6883 2.40852C88.6883 2.39003 88.6628 2.39003 88.6628 2.37154L88.6883 2.35305C88.7392 2.35305 88.7392 2.37154 88.7137 2.40852C88.7392 2.40852 88.7137 2.40852 88.6883 2.40852Z" fill="white"/>
<path d="M60.9403 2.02028C60.9403 2.00179 60.9148 2.00179 60.9148 1.9833C60.9403 1.9833 60.9403 1.96481 60.9657 1.96481C61.0167 1.96481 61.0422 1.9833 61.0167 2.00179C60.9912 2.02028 60.9657 2.02028 60.9403 2.02028Z" fill="white"/>
<path d="M100.358 2.55642C100.333 2.53793 100.307 2.51944 100.282 2.51944C100.307 2.51944 100.307 2.50096 100.333 2.50096C100.358 2.50096 100.409 2.50096 100.409 2.51944C100.435 2.53793 100.384 2.55642 100.358 2.55642Z" fill="white"/>
<path d="M74.2155 1.77994C74.1645 1.76145 74.139 1.74296 74.1645 1.72447C74.19 1.70599 74.241 1.70599 74.2664 1.70599L74.2919 1.74296C74.2664 1.76145 74.241 1.76145 74.2155 1.77994Z" fill="white"/>
<path d="M144.617 7.03043L144.643 7.04892L144.617 7.04892L144.617 7.03043Z" fill="white"/>
<path d="M130.043 4.77494C130.094 4.75645 130.145 4.71947 130.196 4.70099C130.221 4.70099 130.247 4.70099 130.247 4.70099C130.272 4.71947 130.272 4.75645 130.221 4.75645C130.145 4.77494 130.094 4.77494 130.043 4.77494Z" fill="white"/>
<path d="M10.6422 2.61188C10.6168 2.61188 10.6168 2.63037 10.5913 2.63037C10.5403 2.61188 10.5403 2.59339 10.5913 2.59339C10.5913 2.59339 10.6168 2.61188 10.6422 2.61188Z" fill="white"/>
<path d="M72.865 1.72447C72.8905 1.72447 72.8905 1.70599 72.916 1.70599C72.9415 1.70599 72.9415 1.72447 72.9669 1.72447C72.9415 1.72447 72.9415 1.74296 72.916 1.74296C72.8905 1.74296 72.865 1.72447 72.865 1.72447Z" fill="white"/>
<path d="M68.4569 2.51944L68.4824 2.50095L68.5079 2.51944L68.4824 2.53793L68.4569 2.51944Z" fill="white"/>
<path d="M113.965 2.61188L113.99 2.5934L114.016 2.61188L113.965 2.61188Z" fill="white"/>
<path d="M118.22 3.22198L118.22 3.185C118.22 3.20349 118.194 3.22198 118.22 3.22198Z" fill="white"/>
</svg>
